<svg width="580" height="74" viewBox="0 0 580 74" fill="none" xmlns="http://www.w3.org/2000/svg">
<path d="M55.5469 50.4414L56.5401 50.5575L56.6706 49.4414H55.5469V50.4414ZM47.1973 67.873L47.8554 68.6259L47.8558 68.6256L47.1973 67.873ZM8.37891 64.9434L7.61238 65.5856L7.61442 65.588L8.37891 64.9434ZM4.32617 16.5059L3.42254 16.0775L3.42029 16.0823L4.32617 16.5059ZM14.3848 4.98242L14.9096 5.83365L14.9142 5.83078L14.3848 4.98242ZM47.5879 7.27734L46.9074 8.01014L46.9103 8.01275L47.5879 7.27734ZM55.5469 24.7578V25.7578H56.6523L56.5419 24.6579L55.5469 24.7578ZM46.123 24.7578L45.1332 24.9L45.2565 25.7578H46.123V24.7578ZM40.8008 12.4531L40.116 13.1819L40.1203 13.1859L40.8008 12.4531ZM15.3125 15.2852L14.521 14.674L14.5181 14.6777L15.3125 15.2852ZM40.5566 62.7949L41.203 63.558L41.2038 63.5573L40.5566 62.7949ZM46.123 50.4414V49.4414H45.2666L45.1349 50.2877L46.123 50.4414ZM54.5536 50.3253C53.697 57.6543 51.0013 63.2157 46.5388 67.1205L47.8558 68.6256C52.7682 64.3272 55.6389 58.2676 56.5401 50.5575L54.5536 50.3253ZM46.5391 67.1201C42.1091 70.9926 36.1625 72.9766 28.5938 72.9766V74.9766C36.5198 74.9766 42.9756 72.8915 47.8554 68.6259L46.5391 67.1201ZM28.5938 72.9766C20.4678 72.9766 14.0176 70.0791 9.14339 64.2987L7.61442 65.588C12.8964 71.8519 19.9228 74.9766 28.5938 74.9766V72.9766ZM9.14543 64.3011C4.28932 58.5051 1.81055 50.6979 1.81055 40.7734H-0.189453C-0.189453 51.0313 2.37735 59.3373 7.61239 65.5856L9.14543 64.3011ZM1.81055 40.7734V33.9375H-0.189453V40.7734H1.81055ZM1.81055 33.9375C1.81055 27.4478 2.96116 21.7866 5.23205 16.9294L3.42029 16.0823C1.00368 21.2512 -0.189453 27.2111 -0.189453 33.9375H1.81055ZM5.22979 16.9342C7.53115 12.0793 10.7595 8.39233 14.9096 5.83364L13.86 4.1312C9.35118 6.91105 5.8738 10.9064 3.42255 16.0775L5.22979 16.9342ZM14.9142 5.83078C19.0668 3.23929 23.892 1.92969 29.4238 1.92969V-0.0703125C23.5624 -0.0703125 18.3616 1.3219 13.8553 4.13407L14.9142 5.83078ZM29.4238 1.92969C36.7805 1.92969 42.5731 3.98535 46.9074 8.01014L48.2683 6.54455C43.4881 2.10579 37.1713 -0.0703125 29.4238 -0.0703125V1.92969ZM46.9103 8.01275C51.2517 12.013 53.8223 17.5935 54.5519 24.8577L56.5419 24.6579C55.7741 17.0133 53.0387 10.9401 48.2655 6.54194L46.9103 8.01275ZM55.5469 23.7578H46.123V25.7578H55.5469V23.7578ZM47.1129 24.6156C46.283 18.8399 44.4521 14.479 41.4812 11.7203L40.1203 13.1859C42.6182 15.5054 44.3354 19.3476 45.1332 24.9L47.1129 24.6156ZM41.4856 11.7244C38.5456 8.96157 34.4782 7.64453 29.4238 7.64453V9.64453C34.1351 9.64453 37.6523 10.8666 40.116 13.1818L41.4856 11.7244ZM29.4238 7.64453C23.1498 7.64453 18.1433 9.98226 14.521 14.674L16.104 15.8963C19.3176 11.7339 23.7187 9.64453 29.4238 9.64453V7.64453ZM14.5181 14.6777C10.9499 19.3439 9.23438 25.8899 9.23438 34.1816H11.2344C11.2344 26.1323 12.9043 20.0806 16.1069 15.8926L14.5181 14.6777ZM9.23438 34.1816V41.0664H11.2344V34.1816H9.23438ZM9.23438 41.0664C9.23438 48.9111 10.872 55.2723 14.2519 60.052L15.8848 58.8972C12.8194 54.5623 11.2344 48.6514 11.2344 41.0664H9.23438ZM14.2519 60.052C17.6703 64.8861 22.4895 67.3105 28.5938 67.3105V65.3105C23.1094 65.3105 18.9118 63.1777 15.8848 58.8972L14.2519 60.052ZM28.5938 67.3105C33.9374 67.3105 38.1908 66.1095 41.203 63.558L39.9103 62.0319C37.3886 64.1679 33.6667 65.3105 28.5938 65.3105V67.3105ZM41.2038 63.5573C44.2698 60.9548 46.1841 56.5548 47.1112 50.5951L45.1349 50.2877C44.2391 56.0468 42.4425 59.8825 39.9095 62.0325L41.2038 63.5573ZM46.123 51.4414H55.5469V49.4414H46.123V51.4414ZM90.0684 37.5996L89.1801 38.0589L90.066 39.7722L90.9556 38.0608L90.0684 37.5996ZM108.623 1.90625V0.90625H108.016L107.736 1.44501L108.623 1.90625ZM119.268 1.90625L120.144 2.38806L120.959 0.90625H119.268V1.90625ZM94.7559 46.4863L93.8796 46.0045L93.7559 46.2295V46.4863H94.7559ZM94.7559 73V74H95.7559V73H94.7559ZM85.3809 73H84.3809V74H85.3809V73ZM85.3809 46.4863H86.3809V46.2295L86.2571 46.0045L85.3809 46.4863ZM60.8691 1.90625V0.90625H59.1781L59.9929 2.38806L60.8691 1.90625ZM71.6113 1.90625L72.4996 1.44693L72.22 0.90625H71.6113V1.90625ZM90.9556 38.0608L109.51 2.36749L107.736 1.44501L89.1811 37.1384L90.9556 38.0608ZM108.623 2.90625H119.268V0.90625H108.623V2.90625ZM118.391 1.42444L93.8796 46.0045L95.6321 46.9681L120.144 2.38806L118.391 1.42444ZM93.7559 46.4863V73H95.7559V46.4863H93.7559ZM94.7559 72H85.3809V74H94.7559V72ZM86.3809 73V46.4863H84.3809V73H86.3809ZM86.2571 46.0045L61.7454 1.42444L59.9929 2.38806L84.5046 46.9681L86.2571 46.0045ZM60.8691 2.90625H71.6113V0.90625H60.8691V2.90625ZM70.7231 2.36557L89.1801 38.0589L90.9566 37.1403L72.4996 1.44693L70.7231 2.36557ZM128.447 73H127.447V74H128.447V73ZM128.447 1.90625V0.90625H127.447V1.90625H128.447ZM169.072 6.69141L168.437 7.46334L168.44 7.46594L169.072 6.69141ZM172.1 29.6895L172.902 30.2862L172.906 30.2813L172.1 29.6895ZM164.385 35.5977L163.99 34.679L161.388 35.7979L164.115 36.5607L164.385 35.5977ZM173.467 41.75L172.66 42.3403L172.667 42.35L173.467 41.75ZM170.635 67.5312L169.973 66.7812L170.635 67.5312ZM137.822 39.748V38.748H136.822V39.748H137.822ZM137.822 65.334H136.822V66.334H137.822V65.334ZM163.604 61.9648L164.271 62.7096L164.271 62.7091L163.604 61.9648ZM137.822 32.2285H136.822V33.2285H137.822V32.2285ZM161.797 29.1523L161.159 28.3824L161.154 28.3866L161.797 29.1523ZM162.09 12.3066L161.472 13.093L161.479 13.0984L162.09 12.3066ZM137.822 9.62109V8.62109H136.822V9.62109H137.822ZM129.447 73V1.90625H127.447V73H129.447ZM128.447 2.90625H151.689V0.90625H128.447V2.90625ZM151.689 2.90625C159.291 2.90625 164.816 4.48169 168.437 7.46334L169.708 5.91948C165.581 2.52092 159.518 0.90625 151.689 0.90625V2.90625ZM168.44 7.46594C172.059 10.4214 173.932 14.8231 173.932 20.8516H175.932C175.932 14.38 173.898 9.34163 169.705 5.91687L168.44 7.46594ZM173.932 20.8516C173.932 23.9683 173.05 26.705 171.294 29.0976L172.906 30.2813C174.925 27.5307 175.932 24.3755 175.932 20.8516H173.932ZM171.297 29.0928C169.526 31.4741 167.103 33.3403 163.99 34.679L164.78 36.5163C168.177 35.0555 170.897 32.9829 172.902 30.2862L171.297 29.0928ZM164.115 36.5607C167.755 37.5786 170.587 39.5059 172.66 42.3402L174.274 41.1598C171.919 37.9394 168.697 35.7651 164.654 34.6346L164.115 36.5607ZM172.667 42.35C174.768 45.1522 175.836 48.5162 175.836 52.4922H177.836C177.836 48.1349 176.657 44.3374 174.267 41.15L172.667 42.35ZM175.836 52.4922C175.836 58.6353 173.857 63.3559 169.973 66.7812L171.296 68.2813C175.68 64.4149 177.836 59.1095 177.836 52.4922H175.836ZM169.973 66.7812C166.08 70.2148 160.505 72 153.105 72V74C160.811 74 166.921 72.1394 171.296 68.2813L169.973 66.7812ZM153.105 72H128.447V74H153.105V72ZM136.822 39.748V65.334H138.822V39.748H136.822ZM137.822 66.334H153.301V64.334H137.822V66.334ZM153.301 66.334C157.834 66.334 161.532 65.1639 164.271 62.7096L162.936 61.2201C160.662 63.2579 157.491 64.334 153.301 64.334V66.334ZM164.271 62.7091C167.057 60.209 168.412 56.7939 168.412 52.5898H166.412C166.412 56.3285 165.228 59.1634 162.936 61.2206L164.271 62.7091ZM168.412 52.5898C168.412 48.1325 167.196 44.6121 164.598 42.2224C162.015 39.8473 158.237 38.748 153.447 38.748V40.748C157.968 40.748 161.172 41.7891 163.244 43.6946C165.3 45.5855 166.412 48.4859 166.412 52.5898H168.412ZM153.447 38.748H137.822V40.748H153.447V38.748ZM137.822 33.2285H151.982V31.2285H137.822V33.2285ZM151.982 33.2285C156.251 33.2285 159.772 32.1592 162.44 29.918L161.154 28.3866C158.939 30.2471 155.917 31.2285 151.982 31.2285V33.2285ZM162.435 29.9222C165.162 27.6621 166.508 24.5843 166.508 20.8027H164.508C164.508 24.0525 163.38 26.5411 161.159 28.3825L162.435 29.9222ZM166.508 20.8027C166.508 16.7053 165.306 13.5243 162.701 11.5149L161.479 13.0984C163.431 14.6046 164.508 17.0877 164.508 20.8027H166.508ZM162.708 11.5203C160.174 9.52974 156.442 8.62109 151.689 8.62109V10.6211C156.247 10.6211 159.448 11.5028 161.472 13.093L162.708 11.5203ZM151.689 8.62109H137.822V10.6211H151.689V8.62109ZM136.822 9.62109V32.2285H138.822V9.62109H136.822ZM230.938 40.1387V41.1387H231.938V40.1387H230.938ZM200.127 40.1387V39.1387H199.127V40.1387H200.127ZM200.127 65.334H199.127V66.334H200.127V65.334ZM235.918 65.334H236.918V64.334H235.918V65.334ZM235.918 73V74H236.918V73H235.918ZM190.752 73H189.752V74H190.752V73ZM190.752 1.90625V0.90625H189.752V1.90625H190.752ZM235.43 1.90625H236.43V0.90625H235.43V1.90625ZM235.43 9.62109V10.6211H236.43V9.62109H235.43ZM200.127 9.62109V8.62109H199.127V9.62109H200.127ZM200.127 32.4727H199.127V33.4727H200.127V32.4727ZM230.938 32.4727H231.938V31.4727H230.938V32.4727ZM230.938 39.1387H200.127V41.1387H230.938V39.1387ZM199.127 40.1387V65.334H201.127V40.1387H199.127ZM200.127 66.334H235.918V64.334H200.127V66.334ZM234.918 65.334V73H236.918V65.334H234.918ZM235.918 72H190.752V74H235.918V72ZM191.752 73V1.90625H189.752V73H191.752ZM190.752 2.90625H235.43V0.90625H190.752V2.90625ZM234.43 1.90625V9.62109H236.43V1.90625H234.43ZM235.43 8.62109H200.127V10.6211H235.43V8.62109ZM199.127 9.62109V32.4727H201.127V9.62109H199.127ZM200.127 33.4727H230.938V31.4727H200.127V33.4727ZM229.938 32.4727V40.1387H231.938V32.4727H229.938ZM273.662 44.2402L274.543 43.7675L274.26 43.2402H273.662V44.2402ZM256.963 44.2402V43.2402H255.963V44.2402H256.963ZM256.963 73V74H257.963V73H256.963ZM247.539 73H246.539V74H247.539V73ZM247.539 1.90625V0.90625H246.539V1.90625H247.539ZM289.531 7.375L288.884 8.13751L288.887 8.13991L289.531 7.375ZM292.412 34.8652L291.605 34.2742L291.602 34.2795L292.412 34.8652ZM282.451 42.2383L282.095 41.304L281.019 41.7147L281.576 42.7225L282.451 42.2383ZM299.15 72.4141H300.15V72.1558L300.025 71.9299L299.15 72.4141ZM299.15 73V74H300.15V73H299.15ZM289.092 73L288.211 73.4728L288.493 74H289.092V73ZM256.963 36.5742H255.963V37.5742H256.963V36.5742ZM282.451 32.9609L281.795 32.2067L281.79 32.2106L282.451 32.9609ZM282.646 13.1855L281.978 13.9289L281.982 13.933L282.646 13.1855ZM271.318 9.62109L271.325 8.62109H271.318V9.62109ZM256.963 9.62109V8.62109H255.963V9.62109H256.963ZM273.662 43.2402H256.963V45.2402H273.662V43.2402ZM255.963 44.2402V73H257.963V44.2402H255.963ZM256.963 72H247.539V74H256.963V72ZM248.539 73V1.90625H246.539V73H248.539ZM247.539 2.90625H271.074V0.90625H247.539V2.90625ZM271.074 2.90625C278.943 2.90625 284.831 4.69846 288.884 8.13751L290.178 6.61249C285.638 2.75987 279.221 0.90625 271.074 0.90625V2.90625ZM288.887 8.13991C292.94 11.5526 295.025 16.5475 295.025 23.293H297.025C297.025 16.1062 294.782 10.4891 290.175 6.61009L288.887 8.13991ZM295.025 23.293C295.025 27.5269 293.878 31.1729 291.605 34.2742L293.219 35.4563C295.764 31.9821 297.025 27.9132 297.025 23.293H295.025ZM291.602 34.2795C289.353 37.3901 286.2 39.7369 282.095 41.304L282.808 43.1725C287.231 41.4845 290.718 38.9159 293.223 35.451L291.602 34.2795ZM281.576 42.7225L298.275 72.8983L300.025 71.9299L283.326 41.7541L281.576 42.7225ZM298.15 72.4141V73H300.15V72.4141H298.15ZM299.15 72H289.092V74H299.15V72ZM289.973 72.5272L274.543 43.7675L272.781 44.713L288.211 73.4728L289.973 72.5272ZM256.963 37.5742H271.367V35.5742H256.963V37.5742ZM271.367 37.5742C276.196 37.5742 280.149 36.3217 283.112 33.7113L281.79 32.2106C279.285 34.4179 275.848 35.5742 271.367 35.5742V37.5742ZM283.108 33.7152C286.116 31.096 287.602 27.5861 287.602 23.293H285.602C285.602 27.0728 284.32 30.0082 281.795 32.2067L283.108 33.7152ZM287.602 23.293C287.602 18.6884 286.212 15.0167 283.311 12.4381L281.982 13.933C284.355 16.0419 285.602 19.1084 285.602 23.293H287.602ZM283.315 12.4423C280.467 9.8782 276.417 8.65462 271.325 8.62112L271.312 10.6211C276.115 10.6527 279.618 11.8054 281.978 13.9288L283.315 12.4423ZM271.318 8.62109H256.963V10.6211H271.318V8.62109ZM255.963 9.62109V36.5742H257.963V9.62109H255.963ZM363.799 1.90625V0.90625H362.799V1.90625H363.799ZM373.223 1.90625H374.223V0.90625H373.223V1.90625ZM367.07 68.2148L366.387 67.4849L366.384 67.4877L367.07 68.2148ZM328.35 53.3711V52.3711H327.35V53.3711H328.35ZM337.725 53.3711H338.725V52.3711H337.725V53.3711ZM341.045 62.8926L340.328 63.5894L340.333 63.5946L341.045 62.8926ZM360.137 62.6484L359.425 61.9461L359.42 61.9509L360.137 62.6484ZM363.799 52.3945L364.799 52.4019V52.3945H363.799ZM363.799 2.90625H373.223V0.90625H363.799V2.90625ZM372.223 1.90625V52.248H374.223V1.90625H372.223ZM372.223 52.248C372.223 58.8377 370.245 63.8719 366.387 67.4849L367.754 68.9447C372.099 64.8755 374.223 59.2652 374.223 52.248H372.223ZM366.384 67.4877C362.539 71.1174 357.368 72.9766 350.762 72.9766V74.9766C357.762 74.9766 363.464 72.9946 367.757 68.942L366.384 67.4877ZM350.762 72.9766C343.866 72.9766 338.635 71.2153 334.934 67.8197L333.582 69.2935C337.758 73.1245 343.53 74.9766 350.762 74.9766V72.9766ZM334.934 67.8197C331.246 64.4363 329.35 59.6673 329.35 53.3711H327.35C327.35 60.0957 329.392 65.4504 333.582 69.2935L334.934 67.8197ZM328.35 54.3711H337.725V52.3711H328.35V54.3711ZM336.725 53.3711C336.725 57.6241 337.886 61.0757 340.328 63.5894L341.762 62.1958C339.777 60.1521 338.725 57.2561 338.725 53.3711H336.725ZM340.333 63.5946C342.822 66.1195 346.352 67.3105 350.762 67.3105V65.3105C346.708 65.3105 343.76 64.223 341.757 62.1906L340.333 63.5946ZM350.762 67.3105C354.865 67.3105 358.262 66.0079 360.853 63.3459L359.42 61.9509C357.259 64.1718 354.406 65.3105 350.762 65.3105V67.3105ZM360.849 63.3508C363.488 60.676 364.765 56.9804 364.799 52.4019L362.799 52.3871C362.768 56.5977 361.603 59.7381 359.425 61.9461L360.849 63.3508ZM364.799 52.3945V1.90625H362.799V52.3945H364.799ZM439.238 1.90625H440.238V0.90625H439.238V1.90625ZM439.238 50.2461L440.238 50.2509V50.2461H439.238ZM432.891 66.7012L432.178 65.9995L432.175 66.0023L432.891 66.7012ZM415.898 73.8789L415.938 74.8781L415.954 74.8775L415.971 74.8763L415.898 73.8789ZM413.408 73.9766V74.9766H413.428L413.447 74.9758L413.408 73.9766ZM394.805 67.6777L394.132 68.4179L394.805 67.6777ZM387.773 50.3438H386.773L386.773 50.3526L387.773 50.3438ZM387.773 1.90625V0.90625H386.773V1.90625H387.773ZM397.051 1.90625H398.051V0.90625H397.051V1.90625ZM401.299 62.0625L400.588 62.7656L400.592 62.7696L401.299 62.0625ZM425.566 62.0625L424.859 61.3554L424.855 61.3595L425.566 62.0625ZM429.814 1.90625V0.90625H428.814V1.90625H429.814ZM438.238 1.90625V50.2461H440.238V1.90625H438.238ZM438.238 50.2412C438.207 56.7203 436.172 61.9441 432.178 65.9995L433.603 67.4028C438.008 62.9296 440.205 57.1833 440.238 50.2509L438.238 50.2412ZM432.175 66.0023C428.213 70.0579 422.796 72.3746 415.826 72.8815L415.971 74.8763C423.324 74.3415 429.235 71.8731 433.606 67.4L432.175 66.0023ZM415.859 72.8797L413.369 72.9773L413.447 74.9758L415.938 74.8781L415.859 72.8797ZM413.408 72.9766C405.813 72.9766 399.873 70.9312 395.477 66.9376L394.132 68.4179C398.981 72.8227 405.443 74.9766 413.408 74.9766V72.9766ZM395.477 66.9376C391.098 62.9593 388.837 57.467 388.773 50.3349L386.773 50.3526C386.841 57.934 389.267 63.9977 394.132 68.4179L395.477 66.9376ZM388.773 50.3438V1.90625H386.773V50.3438H388.773ZM387.773 2.90625H397.051V0.90625H387.773V2.90625ZM396.051 1.90625V50.0508H398.051V1.90625H396.051ZM396.051 50.0508C396.051 55.381 397.523 59.6657 400.588 62.7656L402.01 61.3594C399.41 58.7301 398.051 55.0071 398.051 50.0508H396.051ZM400.592 62.7696C403.664 65.8418 407.987 67.3105 413.408 67.3105V65.3105C408.347 65.3105 404.598 63.9472 402.006 61.3554L400.592 62.7696ZM413.408 67.3105C418.889 67.3105 423.234 65.8443 426.278 62.7655L424.855 61.3595C422.3 63.9448 418.539 65.3105 413.408 65.3105V67.3105ZM426.274 62.7696C429.342 59.7008 430.814 55.4292 430.814 50.0996H428.814C428.814 55.0565 427.455 58.7602 424.859 61.3554L426.274 62.7696ZM430.814 50.0996V1.90625H428.814V50.0996H430.814ZM429.814 2.90625H439.238V0.90625H429.814V2.90625ZM508.672 73V74H509.672V73H508.672ZM499.248 73L498.411 73.5469L498.707 74H499.248V73ZM463.457 18.2148L464.294 17.6679L462.457 14.8558V18.2148H463.457ZM463.457 73V74H464.457V73H463.457ZM454.033 73H453.033V74H454.033V73ZM454.033 1.90625V0.90625H453.033V1.90625H454.033ZM463.457 1.90625L464.295 1.35998L463.999 0.90625H463.457V1.90625ZM499.346 56.9355L498.508 57.4818L500.346 60.2995V56.9355H499.346ZM499.346 1.90625V0.90625H498.346V1.90625H499.346ZM508.672 1.90625H509.672V0.90625H508.672V1.90625ZM508.672 72H499.248V74H508.672V72ZM500.085 72.4531L464.294 17.6679L462.62 18.7618L498.411 73.5469L500.085 72.4531ZM462.457 18.2148V73H464.457V18.2148H462.457ZM463.457 72H454.033V74H463.457V72ZM455.033 73V1.90625H453.033V73H455.033ZM454.033 2.90625H463.457V0.90625H454.033V2.90625ZM462.619 2.45252L498.508 57.4818L500.183 56.3893L464.295 1.35998L462.619 2.45252ZM500.346 56.9355V1.90625H498.346V56.9355H500.346ZM499.346 2.90625H508.672V0.90625H499.346V2.90625ZM507.672 1.90625V73H509.672V1.90625H507.672ZM543.389 39.9434L544.184 39.3372L543.477 38.4094L542.668 39.25L543.389 39.9434ZM534.697 48.9766L533.977 48.2832L533.697 48.5736V48.9766H534.697ZM534.697 73V74H535.697V73H534.697ZM525.322 73H524.322V74H525.322V73ZM525.322 1.90625V0.90625H524.322V1.90625H525.322ZM534.697 1.90625H535.697V0.90625H534.697V1.90625ZM534.697 37.0625H533.697V39.6715L535.441 37.7309L534.697 37.0625ZM566.289 1.90625V0.90625H565.843L565.545 1.23786L566.289 1.90625ZM577.617 1.90625L578.364 2.57155L579.848 0.90625H577.617V1.90625ZM549.639 33.3027L548.892 32.6374L548.344 33.2523L548.843 33.9079L549.639 33.3027ZM579.814 73V74H581.831L580.611 72.3948L579.814 73ZM568.584 73L567.789 73.6062L568.089 74H568.584V73ZM542.668 39.25L533.977 48.2832L535.418 49.6699L544.109 40.6367L542.668 39.25ZM533.697 48.9766V73H535.697V48.9766H533.697ZM534.697 72H525.322V74H534.697V72ZM526.322 73V1.90625H524.322V73H526.322ZM525.322 2.90625H534.697V0.90625H525.322V2.90625ZM533.697 1.90625V37.0625H535.697V1.90625H533.697ZM535.441 37.7309L567.033 2.57464L565.545 1.23786L533.953 36.3941L535.441 37.7309ZM566.289 2.90625H577.617V0.90625H566.289V2.90625ZM576.871 1.24095L548.892 32.6374L550.385 33.968L578.364 2.57155L576.871 1.24095ZM548.843 33.9079L579.018 73.6052L580.611 72.3948L550.435 32.6976L548.843 33.9079ZM579.814 72H568.584V74H579.814V72ZM569.379 72.3938L544.184 39.3372L542.593 40.5495L567.789 73.6062L569.379 72.3938Z" fill="black"/>
</svg>
