<svg xmlns="http://www.w3.org/2000/svg" width="375" viewBox="0 0 375 375" height="375" version="1.0"><defs><clipPath id="a"><path d="M 42 41 L 333 41 L 333 333 L 42 333 Z M 42 41"/></clipPath><clipPath id="b"><path d="M 187.496094 41.929688 L 332.808594 187.242188 L 187.496094 332.550781 L 42.1875 187.242188 Z M 187.496094 41.929688"/></clipPath><clipPath id="c"><path d="M 187.496094 41.929688 L 332.808594 187.242188 L 187.496094 332.550781 L 42.1875 187.242188 Z M 187.496094 41.929688"/></clipPath><clipPath id="d"><path d="M 172.046875 201.109375 L 202.796875 201.109375 L 202.796875 240.109375 L 172.046875 240.109375 Z M 172.046875 201.109375"/></clipPath></defs><path fill="#FFF" d="M-37.5 -37.5H412.5V412.5H-37.5z"/><path fill="#FFF" d="M-37.5 -37.5H412.5V412.5H-37.5z"/><path fill="#414343" d="M-37.5 -37.5H412.5V412.5H-37.5z"/><g clip-path="url(#a)"><g clip-path="url(#b)"><g clip-path="url(#c)"><path fill="#FFF" d="M 187.496094 41.929688 L 42.1875 187.242188 L 187.496094 332.550781 L 332.808594 187.242188 Z M 187.496094 329.265625 L 45.472656 187.242188 L 187.496094 45.214844 L 329.523438 187.242188 Z M 187.496094 329.265625"/></g></g></g><g clip-path="url(#d)"><path fill="#FFF" d="M 187.421875 201.109375 C 178.929688 201.109375 172.046875 203.4375 172.046875 206.308594 L 172.046875 221.042969 C 172.046875 225.445312 176.675781 237.582031 187.421875 240.109375 C 198.167969 237.582031 202.792969 225.445312 202.792969 221.042969 L 202.792969 206.308594 C 202.792969 203.4375 195.910156 201.109375 187.421875 201.109375 Z M 187.421875 202.84375 C 196.386719 202.84375 201.085938 205.417969 201.085938 206.308594 L 201.085938 221.042969 C 201.085938 224.628906 197.386719 234.496094 189.128906 237.765625 L 189.128906 232.308594 L 185.710938 232.308594 L 185.710938 237.765625 C 177.453125 234.496094 173.753906 224.628906 173.753906 221.042969 L 173.753906 206.308594 C 173.753906 205.417969 178.453125 202.84375 187.421875 202.84375 Z M 180.585938 208.910156 C 178.882812 208.910156 177.046875 209.671875 175.464844 212.375 C 177.132812 211.199219 178.550781 210.640625 179.734375 210.640625 C 182.027344 210.640625 183.171875 213.371094 183.523438 213.730469 C 184.023438 214.238281 184.835938 214.238281 185.339844 213.730469 C 185.839844 213.222656 185.839844 212.398438 185.339844 211.886719 C 185.023438 211.574219 183.523438 208.910156 180.585938 208.910156 Z M 194.253906 208.910156 C 191.316406 208.910156 189.816406 211.574219 189.503906 211.886719 C 189 212.398438 189 213.222656 189.503906 213.730469 C 190.007812 214.238281 190.816406 214.238281 191.316406 213.730469 C 191.667969 213.371094 192.8125 210.640625 195.105469 210.640625 C 196.292969 210.640625 197.710938 211.199219 199.378906 212.375 C 197.792969 209.671875 195.957031 208.910156 194.253906 208.910156 Z M 179.734375 214.109375 C 178.332031 214.109375 177.101562 214.625 176.316406 215.410156 C 177.101562 216.195312 178.332031 216.710938 179.734375 216.710938 C 181.136719 216.710938 182.367188 216.195312 183.148438 215.410156 C 182.367188 214.625 181.136719 214.109375 179.734375 214.109375 Z M 195.105469 214.109375 C 193.707031 214.109375 192.476562 214.625 191.691406 215.410156 C 192.476562 216.195312 193.707031 216.710938 195.105469 216.710938 C 196.507812 216.710938 197.738281 216.195312 198.523438 215.410156 C 197.738281 214.625 196.507812 214.109375 195.105469 214.109375 Z M 175.464844 221.910156 L 179.734375 228.84375 L 185.710938 228.84375 L 187.421875 227.109375 L 189.128906 228.84375 L 195.105469 228.84375 L 199.378906 221.910156 L 194.253906 226.242188 L 190.835938 226.242188 L 188.273438 223.640625 L 186.566406 223.640625 L 184.003906 226.242188 L 180.585938 226.242188 Z M 175.464844 221.910156"/></g><path stroke-linecap="round" transform="matrix(2.99501 0 0 3 102.662 185.625)" fill="none" d="M 0.500105 0.00000406313 L 60.603921 0.00000406313" stroke="#FFF"/><g fill="#FFF" fill-opacity=".4"><g><g><path d="M 10.015625 -18.296875 C 12.347656 -18.296875 14.171875 -17.726562 15.484375 -16.59375 C 16.804688 -15.457031 17.566406 -13.960938 17.765625 -12.109375 L 17.78125 -11.859375 L 14.203125 -11.859375 L 14.140625 -12.109375 C 13.671875 -14.453125 12.273438 -15.625 9.953125 -15.625 C 8.503906 -15.625 7.335938 -15.035156 6.453125 -13.859375 C 5.566406 -12.691406 5.125 -11.097656 5.125 -9.078125 C 5.125 -6.910156 5.566406 -5.238281 6.453125 -4.0625 C 7.335938 -2.894531 8.488281 -2.3125 9.90625 -2.3125 C 11.050781 -2.3125 11.96875 -2.628906 12.65625 -3.265625 C 13.351562 -3.910156 13.820312 -4.804688 14.0625 -5.953125 L 14.125 -6.21875 L 17.6875 -6.21875 L 17.65625 -5.953125 C 17.46875 -4.015625 16.671875 -2.476562 15.265625 -1.34375 C 13.859375 -0.207031 12.019531 0.359375 9.75 0.359375 C 7.21875 0.359375 5.179688 -0.46875 3.640625 -2.125 C 2.097656 -3.789062 1.328125 -6.035156 1.328125 -8.859375 C 1.328125 -11.742188 2.140625 -14.035156 3.765625 -15.734375 C 5.398438 -17.441406 7.484375 -18.296875 10.015625 -18.296875 Z M 10.015625 -18.296875" transform="translate(107.99 174.246)"/></g></g></g><g fill="#FFF" fill-opacity=".4"><g><g><path d="M 10.328125 -6.9375 L 10.328125 0 L 6.765625 0 L 6.765625 -6.9375 L 0.421875 -17.9375 L 4.46875 -17.9375 L 8.65625 -10.109375 L 12.71875 -17.9375 L 16.671875 -17.9375 Z M 10.328125 -6.9375" transform="translate(126.653 174.246)"/></g></g></g><g fill="#FFF" fill-opacity=".4"><g><g><path d="M 12.796875 -9.671875 C 15.097656 -9.078125 16.25 -7.640625 16.25 -5.359375 C 16.25 -3.816406 15.765625 -2.601562 14.796875 -1.71875 C 13.835938 -0.832031 12.6875 -0.296875 11.34375 -0.109375 C 10.726562 -0.0351562 9.894531 0 8.84375 0 L 2.3125 0 L 2.3125 -17.9375 L 8.734375 -17.9375 C 9.691406 -17.9375 10.460938 -17.90625 11.046875 -17.84375 C 12.484375 -17.664062 13.597656 -17.175781 14.390625 -16.375 C 15.179688 -15.582031 15.578125 -14.578125 15.578125 -13.359375 C 15.578125 -11.546875 14.648438 -10.316406 12.796875 -9.671875 Z M 5.90625 -15.125 L 5.90625 -10.578125 L 8.609375 -10.578125 C 9.035156 -10.578125 9.457031 -10.601562 9.875 -10.65625 C 11.175781 -10.863281 11.828125 -11.609375 11.828125 -12.890625 C 11.828125 -14.160156 11.148438 -14.878906 9.796875 -15.046875 C 9.378906 -15.097656 8.945312 -15.125 8.5 -15.125 Z M 10.21875 -2.859375 C 10.875 -2.910156 11.414062 -3.148438 11.84375 -3.578125 C 12.269531 -4.015625 12.484375 -4.597656 12.484375 -5.328125 C 12.484375 -6.835938 11.710938 -7.671875 10.171875 -7.828125 C 9.734375 -7.878906 9.304688 -7.90625 8.890625 -7.90625 L 5.90625 -7.90625 L 5.90625 -2.828125 L 9.015625 -2.828125 C 9.585938 -2.828125 9.988281 -2.835938 10.21875 -2.859375 Z M 10.21875 -2.859375" transform="translate(142.924 174.246)"/></g></g></g><g fill="#FFF" fill-opacity=".4"><g><g><path d="M 15.265625 -2.828125 L 15.265625 0 L 2.3125 0 L 2.3125 -17.9375 L 15 -17.9375 L 15 -15.125 L 5.90625 -15.125 L 5.90625 -10.40625 L 14.359375 -10.40625 L 14.359375 -7.5625 L 5.90625 -7.5625 L 5.90625 -2.828125 Z M 15.265625 -2.828125" transform="translate(160.001 174.246)"/></g></g></g><g fill="#FFF" fill-opacity=".4"><g><g><path d="M 15.3125 -4.53125 C 15.539062 -2.394531 15.972656 -0.882812 16.609375 0 L 12.6875 0 C 12.25 -1.195312 11.953125 -2.53125 11.796875 -4 C 11.554688 -6.03125 10.753906 -7.097656 9.390625 -7.203125 C 9.054688 -7.222656 8.585938 -7.234375 7.984375 -7.234375 L 5.90625 -7.234375 L 5.90625 0 L 2.3125 0 L 2.3125 -17.9375 L 8.859375 -17.9375 C 9.847656 -17.9375 10.71875 -17.894531 11.46875 -17.8125 C 12.882812 -17.632812 14.019531 -17.160156 14.875 -16.390625 C 15.738281 -15.617188 16.171875 -14.503906 16.171875 -13.046875 C 16.171875 -11.921875 15.859375 -10.988281 15.234375 -10.25 C 14.609375 -9.519531 13.75 -9 12.65625 -8.6875 C 14.195312 -8.09375 15.082031 -6.707031 15.3125 -4.53125 Z M 5.90625 -9.90625 L 8.375 -9.90625 C 9.082031 -9.90625 9.566406 -9.914062 9.828125 -9.9375 C 11.546875 -10.09375 12.40625 -10.945312 12.40625 -12.5 C 12.40625 -13.320312 12.203125 -13.925781 11.796875 -14.3125 C 11.390625 -14.695312 10.800781 -14.941406 10.03125 -15.046875 C 9.613281 -15.097656 9.113281 -15.125 8.53125 -15.125 L 5.90625 -15.125 Z M 5.90625 -9.90625" transform="translate(176.012 174.246)"/></g></g></g><g fill="#FFF" fill-opacity=".4"><g><g><path d="M 14.09375 -17.9375 L 14.09375 -7.359375 C 14.09375 -6.472656 14.066406 -5.648438 14.015625 -4.890625 C 13.910156 -3.253906 13.328125 -1.96875 12.265625 -1.03125 C 11.210938 -0.101562 9.664062 0.359375 7.625 0.359375 C 5.59375 0.359375 4.050781 -0.160156 3 -1.203125 C 1.957031 -2.253906 1.410156 -3.722656 1.359375 -5.609375 L 1.328125 -6.53125 L 4.90625 -6.53125 L 4.96875 -5.609375 C 5.082031 -3.410156 6.035156 -2.3125 7.828125 -2.3125 C 9.421875 -2.3125 10.304688 -3.238281 10.484375 -5.09375 C 10.492188 -5.476562 10.5 -6.113281 10.5 -7 L 10.5 -17.9375 Z M 14.09375 -17.9375" transform="translate(198.054 174.246)"/></g></g></g><g fill="#FFF" fill-opacity=".4"><g><g><path d="M 16.875 -17.9375 L 16.875 -7.3125 C 16.875 -6.457031 16.859375 -5.753906 16.828125 -5.203125 C 16.703125 -3.566406 16.035156 -2.226562 14.828125 -1.1875 C 13.628906 -0.15625 11.847656 0.359375 9.484375 0.359375 C 7.109375 0.359375 5.316406 -0.15625 4.109375 -1.1875 C 2.910156 -2.226562 2.25 -3.566406 2.125 -5.203125 C 2.09375 -5.753906 2.078125 -6.457031 2.078125 -7.3125 L 2.078125 -17.9375 L 5.640625 -17.9375 L 5.640625 -6.9375 C 5.640625 -6.332031 5.65625 -5.898438 5.6875 -5.640625 C 5.78125 -4.585938 6.140625 -3.769531 6.765625 -3.1875 C 7.398438 -2.601562 8.304688 -2.3125 9.484375 -2.3125 C 10.648438 -2.3125 11.546875 -2.601562 12.171875 -3.1875 C 12.804688 -3.769531 13.171875 -4.585938 13.265625 -5.640625 C 13.296875 -5.898438 13.3125 -6.332031 13.3125 -6.9375 L 13.3125 -17.9375 Z M 16.875 -17.9375" transform="translate(213.545 174.246)"/></g></g></g><g fill="#FFF" fill-opacity=".4"><g><g><path d="M 18.0625 0 L 13.15625 0 L 5.765625 -13.625 C 5.859375 -12 5.90625 -10.160156 5.90625 -8.109375 L 5.90625 0 L 2.3125 0 L 2.3125 -17.9375 L 7.078125 -17.9375 L 14.609375 -4.0625 C 14.523438 -5.664062 14.484375 -7.546875 14.484375 -9.703125 L 14.484375 -17.9375 L 18.046875 -17.9375 Z M 18.0625 0" transform="translate(231.791 174.246)"/></g></g></g><g fill="#FFF" fill-opacity=".4"><g><g><path d="M 9.984375 -9.359375 L 17.546875 0 L 12.921875 0 L 7.390625 -7.25 L 5.90625 -5.640625 L 5.90625 0 L 2.3125 0 L 2.3125 -17.9375 L 5.90625 -17.9375 L 5.90625 -9.28125 L 13.65625 -17.9375 L 17.90625 -17.9375 Z M 9.984375 -9.359375" transform="translate(251.546 174.246)"/></g></g></g><g fill="#FFF"><g><g><path d="M 10.015625 -18.296875 C 12.347656 -18.296875 14.171875 -17.726562 15.484375 -16.59375 C 16.804688 -15.457031 17.566406 -13.960938 17.765625 -12.109375 L 17.78125 -11.859375 L 14.203125 -11.859375 L 14.140625 -12.109375 C 13.671875 -14.453125 12.273438 -15.625 9.953125 -15.625 C 8.503906 -15.625 7.335938 -15.035156 6.453125 -13.859375 C 5.566406 -12.691406 5.125 -11.097656 5.125 -9.078125 C 5.125 -6.910156 5.566406 -5.238281 6.453125 -4.0625 C 7.335938 -2.894531 8.488281 -2.3125 9.90625 -2.3125 C 11.050781 -2.3125 11.96875 -2.628906 12.65625 -3.265625 C 13.351562 -3.910156 13.820312 -4.804688 14.0625 -5.953125 L 14.125 -6.21875 L 17.6875 -6.21875 L 17.65625 -5.953125 C 17.46875 -4.015625 16.671875 -2.476562 15.265625 -1.34375 C 13.859375 -0.207031 12.019531 0.359375 9.75 0.359375 C 7.21875 0.359375 5.179688 -0.46875 3.640625 -2.125 C 2.097656 -3.789062 1.328125 -6.035156 1.328125 -8.859375 C 1.328125 -11.742188 2.140625 -14.035156 3.765625 -15.734375 C 5.398438 -17.441406 7.484375 -18.296875 10.015625 -18.296875 Z M 10.015625 -18.296875" transform="translate(106.842 173.097)"/></g></g></g><g fill="#FFF"><g><g><path d="M 10.328125 -6.9375 L 10.328125 0 L 6.765625 0 L 6.765625 -6.9375 L 0.421875 -17.9375 L 4.46875 -17.9375 L 8.65625 -10.109375 L 12.71875 -17.9375 L 16.671875 -17.9375 Z M 10.328125 -6.9375" transform="translate(125.504 173.097)"/></g></g></g><g fill="#FFF"><g><g><path d="M 12.796875 -9.671875 C 15.097656 -9.078125 16.25 -7.640625 16.25 -5.359375 C 16.25 -3.816406 15.765625 -2.601562 14.796875 -1.71875 C 13.835938 -0.832031 12.6875 -0.296875 11.34375 -0.109375 C 10.726562 -0.0351562 9.894531 0 8.84375 0 L 2.3125 0 L 2.3125 -17.9375 L 8.734375 -17.9375 C 9.691406 -17.9375 10.460938 -17.90625 11.046875 -17.84375 C 12.484375 -17.664062 13.597656 -17.175781 14.390625 -16.375 C 15.179688 -15.582031 15.578125 -14.578125 15.578125 -13.359375 C 15.578125 -11.546875 14.648438 -10.316406 12.796875 -9.671875 Z M 5.90625 -15.125 L 5.90625 -10.578125 L 8.609375 -10.578125 C 9.035156 -10.578125 9.457031 -10.601562 9.875 -10.65625 C 11.175781 -10.863281 11.828125 -11.609375 11.828125 -12.890625 C 11.828125 -14.160156 11.148438 -14.878906 9.796875 -15.046875 C 9.378906 -15.097656 8.945312 -15.125 8.5 -15.125 Z M 10.21875 -2.859375 C 10.875 -2.910156 11.414062 -3.148438 11.84375 -3.578125 C 12.269531 -4.015625 12.484375 -4.597656 12.484375 -5.328125 C 12.484375 -6.835938 11.710938 -7.671875 10.171875 -7.828125 C 9.734375 -7.878906 9.304688 -7.90625 8.890625 -7.90625 L 5.90625 -7.90625 L 5.90625 -2.828125 L 9.015625 -2.828125 C 9.585938 -2.828125 9.988281 -2.835938 10.21875 -2.859375 Z M 10.21875 -2.859375" transform="translate(141.775 173.097)"/></g></g></g><g fill="#FFF"><g><g><path d="M 15.265625 -2.828125 L 15.265625 0 L 2.3125 0 L 2.3125 -17.9375 L 15 -17.9375 L 15 -15.125 L 5.90625 -15.125 L 5.90625 -10.40625 L 14.359375 -10.40625 L 14.359375 -7.5625 L 5.90625 -7.5625 L 5.90625 -2.828125 Z M 15.265625 -2.828125" transform="translate(158.852 173.097)"/></g></g></g><g fill="#FFF"><g><g><path d="M 15.3125 -4.53125 C 15.539062 -2.394531 15.972656 -0.882812 16.609375 0 L 12.6875 0 C 12.25 -1.195312 11.953125 -2.53125 11.796875 -4 C 11.554688 -6.03125 10.753906 -7.097656 9.390625 -7.203125 C 9.054688 -7.222656 8.585938 -7.234375 7.984375 -7.234375 L 5.90625 -7.234375 L 5.90625 0 L 2.3125 0 L 2.3125 -17.9375 L 8.859375 -17.9375 C 9.847656 -17.9375 10.71875 -17.894531 11.46875 -17.8125 C 12.882812 -17.632812 14.019531 -17.160156 14.875 -16.390625 C 15.738281 -15.617188 16.171875 -14.503906 16.171875 -13.046875 C 16.171875 -11.921875 15.859375 -10.988281 15.234375 -10.25 C 14.609375 -9.519531 13.75 -9 12.65625 -8.6875 C 14.195312 -8.09375 15.082031 -6.707031 15.3125 -4.53125 Z M 5.90625 -9.90625 L 8.375 -9.90625 C 9.082031 -9.90625 9.566406 -9.914062 9.828125 -9.9375 C 11.546875 -10.09375 12.40625 -10.945312 12.40625 -12.5 C 12.40625 -13.320312 12.203125 -13.925781 11.796875 -14.3125 C 11.390625 -14.695312 10.800781 -14.941406 10.03125 -15.046875 C 9.613281 -15.097656 9.113281 -15.125 8.53125 -15.125 L 5.90625 -15.125 Z M 5.90625 -9.90625" transform="translate(174.863 173.097)"/></g></g></g><g fill="#FFF"><g><g><path d="M 14.09375 -17.9375 L 14.09375 -7.359375 C 14.09375 -6.472656 14.066406 -5.648438 14.015625 -4.890625 C 13.910156 -3.253906 13.328125 -1.96875 12.265625 -1.03125 C 11.210938 -0.101562 9.664062 0.359375 7.625 0.359375 C 5.59375 0.359375 4.050781 -0.160156 3 -1.203125 C 1.957031 -2.253906 1.410156 -3.722656 1.359375 -5.609375 L 1.328125 -6.53125 L 4.90625 -6.53125 L 4.96875 -5.609375 C 5.082031 -3.410156 6.035156 -2.3125 7.828125 -2.3125 C 9.421875 -2.3125 10.304688 -3.238281 10.484375 -5.09375 C 10.492188 -5.476562 10.5 -6.113281 10.5 -7 L 10.5 -17.9375 Z M 14.09375 -17.9375" transform="translate(196.905 173.097)"/></g></g></g><g fill="#FFF"><g><g><path d="M 16.875 -17.9375 L 16.875 -7.3125 C 16.875 -6.457031 16.859375 -5.753906 16.828125 -5.203125 C 16.703125 -3.566406 16.035156 -2.226562 14.828125 -1.1875 C 13.628906 -0.15625 11.847656 0.359375 9.484375 0.359375 C 7.109375 0.359375 5.316406 -0.15625 4.109375 -1.1875 C 2.910156 -2.226562 2.25 -3.566406 2.125 -5.203125 C 2.09375 -5.753906 2.078125 -6.457031 2.078125 -7.3125 L 2.078125 -17.9375 L 5.640625 -17.9375 L 5.640625 -6.9375 C 5.640625 -6.332031 5.65625 -5.898438 5.6875 -5.640625 C 5.78125 -4.585938 6.140625 -3.769531 6.765625 -3.1875 C 7.398438 -2.601562 8.304688 -2.3125 9.484375 -2.3125 C 10.648438 -2.3125 11.546875 -2.601562 12.171875 -3.1875 C 12.804688 -3.769531 13.171875 -4.585938 13.265625 -5.640625 C 13.296875 -5.898438 13.3125 -6.332031 13.3125 -6.9375 L 13.3125 -17.9375 Z M 16.875 -17.9375" transform="translate(212.396 173.097)"/></g></g></g><g fill="#FFF"><g><g><path d="M 18.0625 0 L 13.15625 0 L 5.765625 -13.625 C 5.859375 -12 5.90625 -10.160156 5.90625 -8.109375 L 5.90625 0 L 2.3125 0 L 2.3125 -17.9375 L 7.078125 -17.9375 L 14.609375 -4.0625 C 14.523438 -5.664062 14.484375 -7.546875 14.484375 -9.703125 L 14.484375 -17.9375 L 18.046875 -17.9375 Z M 18.0625 0" transform="translate(230.642 173.097)"/></g></g></g><g fill="#FFF"><g><g><path d="M 9.984375 -9.359375 L 17.546875 0 L 12.921875 0 L 7.390625 -7.25 L 5.90625 -5.640625 L 5.90625 0 L 2.3125 0 L 2.3125 -17.9375 L 5.90625 -17.9375 L 5.90625 -9.28125 L 13.65625 -17.9375 L 17.90625 -17.9375 Z M 9.984375 -9.359375" transform="translate(250.396 173.097)"/></g></g></g></svg>