<svg xmlns="http://www.w3.org/2000/svg" version="1.1" viewBox="0 0 3000 2750" width="3000" height="2750">
<defs/><!--ITEM: Illustration component 1--><g transform="translate(2085.0 860.0) rotate(0.0 282.5 420.0)  scale(2.470506956772687 2.4721733346675223)"><svg width="228.698" height="339.782" viewBox="0.0 0.0 228.698 339.782"><defs>
    
    <linearGradient id="linear-gradient-i1" x1="6.706" y1="-154.597" x2="282.706" y2="677.403" gradientUnits="userSpaceOnUse">
      <stop offset="0.289" stop-color="#6da2ef" fill="#000000"/>
      <stop offset="0.577" stop-color="#352acf" fill="#000000"/>
    </linearGradient>
  </defs>
  <g>
    <rect width="228.698" height="339.782" style="         fill: url(#linear-gradient-i1);       "/>
    <path d="M228.7,339.782V43.456C121.777,100.422,47.926,211.28,43.4,339.782Z" style="         fill: #352acf;       "/>
    <path d="M228.7,339.782V282.916a25.007,25.007,0,0,0-15.173-.246c-14.5,4.923-14.578,25.043-27.617,26.726-9.287,1.2-12.756-8.556-23.163-7.127-7.879,1.082-12.856,7.63-20.045,17.372-5.626,7.624-10.553,14.3-13.545,20.141Z" style="         fill: #65c400;       "/>
    <path d="M228.7,69.619c-9.523,6.287-16.9,14.328-17.4,22.4-.376,6.13,3.237,11.958,3.563,12.472A26.389,26.389,0,0,0,228.7,114.915Z" style="         fill: #65c400;       "/>
    <path d="M43.4,339.782H60.273a58.924,58.924,0,0,0,9.82-31.276c.059-5.544-.814-11.434,2.673-13.809,4.008-2.731,8.766,2.6,16.035.891,8.4-1.975,12.842-11.629,14.255-14.7,4.1-8.909,1.023-12.318,3.563-23.163,2.179-9.3,6.441-15.333,12.918-24.5,9.789-13.854,14.79-15.562,20.936-23.609,19.527-25.566.2-49.12,18.708-69.934,10.679-12.009,22.71-10.464,25.836-22.272,2.659-10.042-5.09-14.761-6.236-27.617a32.407,32.407,0,0,1,2.663-16.055C100.526,135.258,47.224,231.223,43.4,339.782Z" style="         fill: #65c400;       "/>
  </g>
</svg></g><!--ITEM: Illustration component 2--><g transform="translate(977.5 142.5) rotate(0.0 613.75 997.5)  scale(2.439106780220086 2.443553306207238)"><svg width="503.258" height="816.434" viewBox="0.0 0.0 503.258 816.434"><defs xmlns:xlink="http://www.w3.org/1999/xlink">
    
    <linearGradient id="linear-gradient-i2" x1="249.412" y1="-71.552" x2="209.412" y2="823.114" gradientUnits="userSpaceOnUse">
      <stop offset="0.289" stop-color="#030a24" fill="#000000"/>
      <stop offset="0.577" stop-color="#232276" fill="#000000"/>
    </linearGradient>
    <linearGradient id="&#1041;&#1077;&#1079;&#1099;&#1084;&#1103;&#1085;&#1085;&#1099;&#1081;_&#1075;&#1088;&#1072;&#1076;&#1080;&#1077;&#1085;&#1090;_3-i2" data-name="&#1041;&#1077;&#1079;&#1099;&#1084;&#1103;&#1085;&#1085;&#1099;&#1081; &#1075;&#1088;&#1072;&#1076;&#1080;&#1077;&#1085;&#1090; 3" x1="346.148" y1="325.685" x2="278.903" y2="305.039" gradientUnits="userSpaceOnUse">
      <stop offset="0" stop-color="#352acf" fill="#000000"/>
      <stop offset="1" stop-color="#232276" fill="#000000"/>
    </linearGradient>
    <clipPath id="clip-path-i2">
      <path d="M403.04,353.708h52.236a0,0,0,0,1,0,0v143.5a0,0,0,0,1,0,0H412.849a9.809,9.809,0,0,1-9.809-9.809V353.708A0,0,0,0,1,403.04,353.708Z" transform="translate(-129.573 195.217) rotate(-22.356)" style="         fill: none;       "/>
    </clipPath>
    <linearGradient id="&#1041;&#1077;&#1079;&#1099;&#1084;&#1103;&#1085;&#1085;&#1099;&#1081;_&#1075;&#1088;&#1072;&#1076;&#1080;&#1077;&#1085;&#1090;_3-2-i2" x1="421.429" y1="374.136" x2="409.229" y2="390.912" xlink:href="#&#1041;&#1077;&#1079;&#1099;&#1084;&#1103;&#1085;&#1085;&#1099;&#1081;_&#1075;&#1088;&#1072;&#1076;&#1080;&#1077;&#1085;&#1090;_3-i2"/>
    <linearGradient id="&#1041;&#1077;&#1079;&#1099;&#1084;&#1103;&#1085;&#1085;&#1099;&#1081;_&#1075;&#1088;&#1072;&#1076;&#1080;&#1077;&#1085;&#1090;_6-i2" data-name="&#1041;&#1077;&#1079;&#1099;&#1084;&#1103;&#1085;&#1085;&#1099;&#1081; &#1075;&#1088;&#1072;&#1076;&#1080;&#1077;&#1085;&#1090; 6" x1="342.885" y1="697.28" x2="425.721" y2="697.28" gradientUnits="userSpaceOnUse">
      <stop offset="0.561" stop-color="#352acf" fill="#000000"/>
      <stop offset="1" stop-color="#232276" fill="#000000"/>
    </linearGradient>
    <linearGradient id="&#1041;&#1077;&#1079;&#1099;&#1084;&#1103;&#1085;&#1085;&#1099;&#1081;_&#1075;&#1088;&#1072;&#1076;&#1080;&#1077;&#1085;&#1090;_6-2-i2" x1="321.354" y1="706.325" x2="357.888" y2="706.325" xlink:href="#&#1041;&#1077;&#1079;&#1099;&#1084;&#1103;&#1085;&#1085;&#1099;&#1081;_&#1075;&#1088;&#1072;&#1076;&#1080;&#1077;&#1085;&#1090;_6-i2"/>
    <linearGradient id="linear-gradient-2-i2" x1="131.956" y1="463.226" x2="82.623" y2="788.559" xlink:href="#&#1041;&#1077;&#1079;&#1099;&#1084;&#1103;&#1085;&#1085;&#1099;&#1081;_&#1075;&#1088;&#1072;&#1076;&#1080;&#1077;&#1085;&#1090;_3-i2"/>
    <linearGradient id="&#1041;&#1077;&#1079;&#1099;&#1084;&#1103;&#1085;&#1085;&#1099;&#1081;_&#1075;&#1088;&#1072;&#1076;&#1080;&#1077;&#1085;&#1090;_3-3-i2" x1="228.734" y1="286.216" x2="228.734" y2="88.776" xlink:href="#&#1041;&#1077;&#1079;&#1099;&#1084;&#1103;&#1085;&#1085;&#1099;&#1081;_&#1075;&#1088;&#1072;&#1076;&#1080;&#1077;&#1085;&#1090;_3-i2"/>
    <linearGradient id="&#1041;&#1077;&#1079;&#1099;&#1084;&#1103;&#1085;&#1085;&#1099;&#1081;_&#1075;&#1088;&#1072;&#1076;&#1080;&#1077;&#1085;&#1090;_3-4-i2" x1="176.789" y1="-30.618" x2="144.416" y2="103.763" xlink:href="#&#1041;&#1077;&#1079;&#1099;&#1084;&#1103;&#1085;&#1085;&#1099;&#1081;_&#1075;&#1088;&#1072;&#1076;&#1080;&#1077;&#1085;&#1090;_3-i2"/>
    <linearGradient id="linear-gradient-3-i2" x1="-134.955" y1="18.086" x2="201.045" y2="159.419" gradientUnits="userSpaceOnUse">
      <stop offset="0.44" stop-color="#c8ff00" fill="#000000"/>
      <stop offset="0.577" stop-color="#65c400" fill="#000000"/>
    </linearGradient>
    <linearGradient id="linear-gradient-4-i2" x1="-251.931" y1="-210.836" x2="637.402" y2="327.83" gradientUnits="userSpaceOnUse">
      <stop offset="0.289" stop-color="#6da2ef" fill="#000000"/>
      <stop offset="0.577" stop-color="#fff" fill="#000000"/>
    </linearGradient>
    <linearGradient id="linear-gradient-5-i2" x1="227.807" y1="-100.532" x2="243.807" y2="187.468" xlink:href="#linear-gradient-3-i2"/>
    <clipPath id="clip-path-2-i2">
      <rect x="350.703" y="96.532" width="104.743" height="198.273" style="         fill: none;       "/>
    </clipPath>
    <linearGradient id="&#1041;&#1077;&#1079;&#1099;&#1084;&#1103;&#1085;&#1085;&#1099;&#1081;_&#1075;&#1088;&#1072;&#1076;&#1080;&#1077;&#1085;&#1090;_3-5-i2" x1="466.619" y1="141.471" x2="411.952" y2="276.138" xlink:href="#&#1041;&#1077;&#1079;&#1099;&#1084;&#1103;&#1085;&#1085;&#1099;&#1081;_&#1075;&#1088;&#1072;&#1076;&#1080;&#1077;&#1085;&#1090;_3-i2"/>
  </defs>
  <g>
    <rect x="0.5" width="454.947" height="815.907" style="         fill: url(#linear-gradient-i2);       "/>
    <polygon points="378.999 586.116 330.855 457.863 302.46 398.514 0.5 642.934 0.5 815.907 333.339 815.907 331.984 795.833 357.888 777.743 373.57 767.885 382.315 642.86 378.999 586.116" style="         fill: #352acf;       "/>
    <path d="M286.263,215.169l49.022,30.386a13.244,13.244,0,0,1,6.256,10.7c.8,18.927,1.057,38.913.565,59.859a909.454,909.454,0,0,1-7.409,96.414L189.989,369.871Z" style="         fill: url(#&#1041;&#1077;&#1079;&#1099;&#1084;&#1103;&#1085;&#1085;&#1099;&#1081;_&#1075;&#1088;&#1072;&#1076;&#1080;&#1077;&#1085;&#1090;_3-i2);       "/>
    <path d="M292.173,218.832,229.56,314.5c21.2,7.321,44.2,21.867,65.406,29.188,5.719-13.552,18.863-48.012,23.923-64.845,3.974-13.224,7.084-25.789,9.541-37.536Z" style="         fill: #c8ff00;       "/>
    <rect x="377.899" y="591.945" width="91.687" height="1.999" transform="translate(-296.256 705.835) rotate(-63.36)" style="         fill: #352acf;       "/>
    <path d="M400.993,354.113h65.876a0,0,0,0,1,0,0V555.876a0,0,0,0,1,0,0H410.8a9.809,9.809,0,0,1-9.809-9.809V354.113A0,0,0,0,1,400.993,354.113Z" transform="translate(-140.449 199.252) rotate(-22.356)" style="         fill: #352acf;       "/>
    <g>
      <path d="M403.04,353.708h52.236a0,0,0,0,1,0,0v143.5a0,0,0,0,1,0,0H412.849a9.809,9.809,0,0,1-9.809-9.809V353.708A0,0,0,0,1,403.04,353.708Z" transform="translate(-129.573 195.217) rotate(-22.356)" style="         fill: #6da2ef;       "/>
      <path d="M437.634,499.262a10.334,10.334,0,0,1-9.534-6.393L377.059,368.764l49.235-20.25.19.462,54.773,133.177-39.7,16.328A10.3,10.3,0,0,1,437.634,499.262Zm-59.27-129.954,50.662,123.18a9.309,9.309,0,0,0,12.149,5.068l38.777-15.948-54.2-131.789Z" style="         fill: #030a24;       "/>
    </g>
    <g style="         clip-path: url(#clip-path-i2);       ">
      <polygon points="417.068 444.114 426.608 440.19 415.22 412.503 405.681 416.426 408.456 423.174 417.068 444.114" style="         fill: #c8ff03;       "/>
      <path d="M408.1,463.154h-.014a.5.5,0,0,1-.449-.309L385.8,409.751a.5.5,0,0,1,.63-.662l19.238,6.8,9.362-3.851a.5.5,0,0,1,.653.272L427.07,440a.5.5,0,0,1-.272.653l-9.363,3.851-8.885,18.368A.5.5,0,0,1,408.1,463.154Zm-20.949-52.749,20.986,51.025,8.481-17.534a.505.505,0,0,1,.26-.245l9.077-3.733-11.007-26.763-9.076,3.734a.507.507,0,0,1-.358.009Z" style="         fill: #030a24;       "/>
      <polygon points="441.247 401.799 431.708 405.722 443.095 433.409 452.635 429.486 449.86 422.739 441.247 401.799" style="         fill: #c8ff03;       "/>
      <path d="M472.051,436.852a.513.513,0,0,1-.167-.028l-19.236-6.8-9.362,3.851a.5.5,0,0,1-.654-.273l-11.387-27.687a.5.5,0,0,1,.272-.653l9.364-3.85,8.884-18.368a.556.556,0,0,1,.465-.282.5.5,0,0,1,.448.309l21.836,53.094a.5.5,0,0,1-.463.69Zm-19.417-7.866a.527.527,0,0,1,.167.028l18.363,6.494-20.986-51.025-8.48,17.533a.507.507,0,0,1-.26.246l-9.078,3.732,11.008,26.763,9.076-3.734A.526.526,0,0,1,452.634,428.986Z" style="         fill: #030a24;       "/>
      <path d="M423.4,461.292a.5.5,0,0,1-.19-.963l36.464-15a.5.5,0,1,1,.381.926l-36.465,15A.51.51,0,0,1,423.4,461.292Z" style="         fill: #030a24;       "/>
      <rect x="424.744" y="457.655" width="39.429" height="5.009" transform="translate(-141.63 203.663) rotate(-22.358)" style="         fill: #fff;       "/>
    </g>
    <path d="M314.459,439.409,364.38,335.663a11.169,11.169,0,0,1,11.639-6.215L476,343.687v20.3l-55.277-1.836a11.167,11.167,0,0,0-11.368,9.213L377.348,551.973l-27.74-8.192Z" style="         fill: url(#&#1041;&#1077;&#1079;&#1099;&#1084;&#1103;&#1085;&#1085;&#1099;&#1081;_&#1075;&#1088;&#1072;&#1076;&#1080;&#1077;&#1085;&#1090;_3-2-i2);       "/>
    <path d="M467.03,342.409v11.165L416.7,351.9a16.882,16.882,0,0,0-17.184,13.927l-31.145,175.73-21.671-6.4,2.9,8.623,27.74,8.192,32.009-180.608a11.167,11.167,0,0,1,11.368-9.213L476,363.988v-20.3Z" style="         fill: #fff;       "/>
    <path d="M377.348,552.473a.533.533,0,0,1-.088-.008.5.5,0,0,1-.4-.579l32.01-180.608a11.762,11.762,0,0,1,11.876-9.626l55.277,1.836a.5.5,0,0,1-.016,1h-.017l-55.277-1.836a10.777,10.777,0,0,0-10.859,8.8L377.84,552.059A.5.5,0,0,1,377.348,552.473Z" style="         fill: #030a24;       "/>
    <path d="M425.721,777.743H357.888l-15-160.926h36.209a32.19,32.19,0,0,1,32,28.651Z" style="         fill: url(#&#1041;&#1077;&#1079;&#1099;&#1084;&#1103;&#1085;&#1085;&#1099;&#1081;_&#1075;&#1088;&#1072;&#1076;&#1080;&#1077;&#1085;&#1090;_6-i2);       "/>
    <polygon points="331.984 795.833 357.888 777.743 342.885 616.817 321.354 638.324 331.984 795.833" style="         fill: url(#&#1041;&#1077;&#1079;&#1099;&#1084;&#1103;&#1085;&#1085;&#1099;&#1081;_&#1075;&#1088;&#1072;&#1076;&#1080;&#1077;&#1085;&#1090;_6-2-i2);       "/>
    <path d="M399.817,796.333H331.984a.5.5,0,0,1-.286-.91l25.9-18.09a.5.5,0,0,1,.286-.09H425.72a.5.5,0,0,1,.287.91l-25.9,18.09A.5.5,0,0,1,399.817,796.333Zm-66.244-1H399.66l24.472-17.09H358.046Z" style="         fill: #352acf;       "/>
    <rect x="375.695" y="584.742" width="8.013" height="124.555" transform="translate(-75.932 51.028) rotate(-6.991)" style="         fill: #fff;       "/>
    <path d="M383.305,709.822a.5.5,0,0,1-.5-.439l-11.344-92.506a.5.5,0,0,1,.436-.557.494.494,0,0,1,.557.436l11.283,92.008,7.458-.915a.5.5,0,1,1,.121.993l-7.954.976A.408.408,0,0,1,383.305,709.822Z" style="         fill: #030a24;       "/>
    <circle cx="372.121" cy="580.348" r="14.752" style="         fill: #fff;       "/>
    <rect x="400.24" y="795.791" width="1" height="20.192" transform="matrix(0.996, -0.091, 0.091, 0.996, -71.987, 40.005)" style="         fill: #352acf;       "/>
    <polygon points="377.38 737.489 354.135 737.489 354.613 742.609 377.956 742.609 377.38 737.489" style="         fill: #c8ff00;       "/>
    <polygon points="368.8 749.258 355.232 749.258 355.71 754.379 369.376 754.379 368.8 749.258" style="         fill: #c8ff00;       "/>
    <polygon points="357.39 777.79 342.336 616.316 371.396 616.316 368.768 594.882 369.76 594.761 372.527 617.316 343.433 617.316 358.386 777.696 357.39 777.79" style="         fill: #030a24;       "/>
    <path d="M333.338,816.407a.5.5,0,0,1-.5-.467L320.854,638.357a.5.5,0,0,1,.146-.386l21.531-21.508a.5.5,0,0,1,.851.306L358.54,779.344a.5.5,0,1,1-1,.093L342.485,617.922l-20.617,20.6,11.97,177.357a.5.5,0,0,1-.466.532Z" style="         fill: #030a24;       "/>
    <path d="M401.166,779.462l-4.753-43.946a4.362,4.362,0,0,0-4.356-3.894h-.109l-38.309.917-.023-1,38.308-.917h.134a5.358,5.358,0,0,1,5.349,4.785l4.753,43.947Z" style="         fill: #030a24;       "/>
    <path d="M192.916,647.058q-21.356-8.45-43.048-16.225c-9.781-3.5-57.1-19.178-71.046-23.356Q40.116,595.879.5,586.431V704.225a1297.592,1297.592,0,0,1,151.781,49.749,27.347,27.347,0,0,0,35.2-14.685l22.26-51.9A30.463,30.463,0,0,0,192.916,647.058Z" style="         fill: url(#linear-gradient-2-i2);       "/>
    <path d="M162.442,756.437a27.944,27.944,0,0,1-10.346-2A1302.069,1302.069,0,0,0,.374,704.709a.5.5,0,0,1-.358-.61.494.494,0,0,1,.61-.357A1302.565,1302.565,0,0,1,152.465,753.51a26.689,26.689,0,0,0,34.551-14.418l22.261-51.9a29.961,29.961,0,0,0-16.545-39.666.5.5,0,1,1,.367-.929,30.963,30.963,0,0,1,17.1,40.99l-22.261,51.9A27.72,27.72,0,0,1,162.442,756.437Z" fill="#000000"/>
    <path d="M94.122,732.928a.474.474,0,0,1-.165-.029.5.5,0,0,1-.307-.636l9.99-28.566a.5.5,0,1,1,.944.33l-9.991,28.566A.5.5,0,0,1,94.122,732.928Z" fill="#000000"/>
    <path d="M13.4,711.252a.5.5,0,0,1-.48-.641l9.488-32.374a.494.494,0,0,1,.62-.339.5.5,0,0,1,.339.62l-9.488,32.374A.5.5,0,0,1,13.4,711.252Z" fill="#000000"/>
    <path d="M208.874,815.907A1248.566,1248.566,0,0,0,91.09,766.887l-7.883,22.059q34.869,12.463,68.735,26.961Z" style="         fill: #6da2ef;       "/>
    <polyline points="90.004 771.45 72.474 815.907 87.738 815.907 105.268 771.45" style="         fill: #6da2ef;       "/>
    <path d="M.5,704.217v34.16a1246.192,1246.192,0,0,1,209.474,78.057l7.611-34.411A1297.607,1297.607,0,0,0,.5,704.217Z" fill="#000000"/>
    <path d="M160.338,667.986A1381.68,1381.68,0,0,0,.5,618.557v53.8a1308.826,1308.826,0,0,1,140.635,45.084,18.714,18.714,0,0,0,24.112-10.493l5.811-14.534A18.689,18.689,0,0,0,160.338,667.986Z" style="         fill: #352acf;       "/>
    <path d="M147.808,719.181a19.09,19.09,0,0,1-6.852-1.272A1313.372,1313.372,0,0,0,.374,672.843a.5.5,0,1,1,.252-.969,1315,1315,0,0,1,140.689,45.1,18.3,18.3,0,0,0,23.468-10.211.5.5,0,1,1,.928.371A19.293,19.293,0,0,1,147.808,719.181Z" fill="#000000"/>
    <g>
      <path d="M455.447,317.677V0H2.021L142.963,52.037c81.921,17.169,164.016,45.5,240.263,95.089l-31.2,54.3,12.171,46.44h0A700.958,700.958,0,0,1,455.447,317.677Z" style="         fill: url(#&#1041;&#1077;&#1079;&#1099;&#1084;&#1103;&#1085;&#1085;&#1099;&#1081;_&#1075;&#1088;&#1072;&#1076;&#1080;&#1077;&#1085;&#1090;_3-3-i2);       "/>
      <g>
        <path d="M290.008,110.953l2.182-8.535c.956.395,1.915.782,2.869,1.181q4.881,2.038,9.727,4.141c1.431.62,2.853,1.256,4.279,1.885q3.06,1.349,6.11,2.718,2.343,1.057,4.677,2.132,2.9,1.331,5.781,2.684c1.521.713,3.044,1.425,4.56,2.148q3.312,1.579,6.6,3.195c1.155.564,2.316,1.118,3.468,1.687l0,0q21.878,10.818,42.966,22.939l5.166-8.992q-23.473-13.518-47.929-25.465A103.942,103.942,0,0,0,288.624,0H.5V13.552L25.132,51.419a781.848,781.848,0,0,1,264.779,59.492Z" style="         fill: #6da2ef;       "/>
        <path d="M267.381,20.827Q232.553,8.867,196.363,0H.5V110.347a685.12,685.12,0,0,1,283.72,61.081l24.555-54.223C326,79.157,306.884,34.391,267.381,20.827Z" style="         fill: url(#&#1041;&#1077;&#1079;&#1099;&#1084;&#1103;&#1085;&#1085;&#1099;&#1081;_&#1075;&#1088;&#1072;&#1076;&#1080;&#1077;&#1085;&#1090;_3-4-i2);       "/>
        <g>
          <path d="M129.2,122.379l-10.145-32.73A723.037,723.037,0,0,0,.5,79.906v30.441A691.239,691.239,0,0,1,129.2,122.379Z" style="         fill: url(#linear-gradient-3-i2);       "/>
          <path d="M92.69,116.49q3.843.516,7.671,1.072L90.419,85.486q-3.805-.476-7.622-.913Z" style="         fill: #030a24;       "/>
        </g>
        <path d="M266.71,20.6C243.636,12.849,220.185,5.842,196.284,0H28.92L45.783,54.4A763.64,763.64,0,0,1,151.136,67.937l5.839-7.872a748.438,748.438,0,0,1,154.354,50.553C323.965,71.417,304.865,33.416,266.71,20.6Z" style="         fill: url(#linear-gradient-4-i2);       "/>
        <g>
          <circle cx="238.441" cy="90.882" r="23.138" style="         fill: #fff;       "/>
          <path d="M238.441,49.133A41.749,41.749,0,1,0,280.19,90.882,41.749,41.749,0,0,0,238.441,49.133Zm0,61.214a19.465,19.465,0,1,1,19.465-19.465A19.464,19.464,0,0,1,238.441,110.347Z" style="         fill: url(#linear-gradient-5-i2);       "/>
          <path d="M249.262,107.061a19.356,19.356,0,0,1-8.291,3.1l2.9,22.1a41.5,41.5,0,0,0,17.78-6.682Z" fill="#000000"/>
          <path d="M243.7,109.608a19.341,19.341,0,0,1-19.171-5.128L208.59,120.056a41.715,41.715,0,0,0,41.133,11.02Z" style="         fill: #c8ff00;       "/>
        </g>
      </g>
      <g style="         clip-path: url(#clip-path-2-i2);       ">
        <g>
          <path d="M399.453,245.157a.99.99,0,0,1-.581-.187l-1.066-.767c-8.891-6.392-18.067-12.655-27.27-18.617a1,1,0,1,1,1.088-1.678c9.229,5.979,18.431,12.261,27.351,18.671l1.061.766a1,1,0,0,1-.583,1.812Z" style="         fill: #fff;       "/>
          <path d="M394.468,252.076a1,1,0,0,1-.584-.189l-1.4-1.008c-3.414-2.45-6.9-4.9-10.352-7.283a1,1,0,0,1,1.135-1.647c3.466,2.39,6.959,4.848,10.383,7.3l1.4,1.011a1,1,0,0,1-.586,1.811Z" style="         fill: #fff;       "/>
        </g>
        <path d="M458.944,196.159l9.2-12.12A784.1,784.1,0,0,0,391.7,132.714l-8.636,14.753A781.687,781.687,0,0,1,458.944,196.159Z" style="         fill: #65c400;       "/>
        <path d="M477.243,177.58l10.168-11.268q-28.869-22.287-59.774-41.935l-8.107,12.784Q449.323,156.094,477.243,177.58Z" style="         fill: #c8ff00;       "/>
        <path d="M467.577,284.45l35.681-40.784c-.163-.21-.337-.421-.5-.632a751.511,751.511,0,0,0-95.858-73.69l-29.46,45.569A705.591,705.591,0,0,1,467.577,284.45Z" style="         fill: #fff;       "/>
        <path d="M468.266,283.663c-45.571-36.739,5.075-65.916-19.99-82.26-17.875-11.655-44.7,29.724-70.305,12.685l-.534.825,90.14,69.537Z" style="         fill: url(#&#1041;&#1077;&#1079;&#1099;&#1084;&#1103;&#1085;&#1085;&#1099;&#1081;_&#1075;&#1088;&#1072;&#1076;&#1080;&#1077;&#1085;&#1090;_3-5-i2);       "/>
        <path d="M467.952,284.053c-26.65-21.486-20.7-40.47-15.925-55.724,3.471-11.081,6.212-19.833-4.024-26.507-7.857-5.122-17.835.524-28.4,6.5-12.971,7.339-27.674,15.658-41.911,6.182l.555-.832c13.728,9.136,28.145.977,40.864-6.221,10.836-6.131,21.07-11.919,29.437-6.467,10.871,7.088,7.887,16.614,4.432,27.644-4.687,14.965-10.52,33.589,15.6,54.645Z" style="         fill: #ff0068;       "/>
      </g>
    </g>
  </g>
</svg></g><!--ITEM: Illustration component 3--><g transform="translate(270.0 412.5) rotate(0.0 352.5 397.5)  scale(2.4338712016073907 2.4432895590092847)"><svg width="289.662" height="325.381" viewBox="0.0 0.0 289.662 325.381"><defs>
    
    <linearGradient id="linear-gradient-i3" x1="147.211" y1="-156.686" x2="140.544" y2="737.98" gradientUnits="userSpaceOnUse">
      <stop offset="0.289" stop-color="#030a24" fill="#000000"/>
      <stop offset="0.577" stop-color="#232276" fill="#000000"/>
    </linearGradient>
  </defs>
  <rect width="289.662" height="325.381" style="         fill: url(#linear-gradient-i3);       "/>
</svg></g><!--ITEM: Illustration component 4--><g transform="translate(2092.5 1085.0) rotate(0.0 370.0 473.75)  scale(2.4351717783335527 2.4371046939022225)"><svg width="303.88" height="388.781" viewBox="0.0 0.0 303.88 388.781"><defs>
    
    <linearGradient id="&#1041;&#1077;&#1079;&#1099;&#1084;&#1103;&#1085;&#1085;&#1099;&#1081;_&#1075;&#1088;&#1072;&#1076;&#1080;&#1077;&#1085;&#1090;_3-i4" data-name="&#1041;&#1077;&#1079;&#1099;&#1084;&#1103;&#1085;&#1085;&#1099;&#1081; &#1075;&#1088;&#1072;&#1076;&#1080;&#1077;&#1085;&#1090; 3" x1="50.507" y1="14.741" x2="127.996" y2="14.741" gradientUnits="userSpaceOnUse">
      <stop offset="0" stop-color="#352acf" fill="#000000"/>
      <stop offset="1" stop-color="#232276" fill="#000000"/>
    </linearGradient>
  </defs>
  <g>
    <path d="M132.81,138.941l.08,7.613a11.291,11.291,0,0,0,4.134,8.615L169,181.377a13.163,13.163,0,0,0,10.652,2.779l49.149-8.753-13.093-16.818Z" fill="#000000"/>
    <path d="M112.546,100.608l.052,15.4a15.745,15.745,0,0,0,5.771,12.131l55.577,45.5V149.258Z" style="         fill: #6da2ef;       "/>
    <g>
      <path d="M186.192,173.064l-9.277,1.364a3.935,3.935,0,0,1-4.507-3.893v-22.78l19.669,1.391v17.106A6.885,6.885,0,0,1,186.192,173.064Z" style="         fill: #352acf;       "/>
      <path d="M173.408,148.828l17.669,1.25v16.174a5.919,5.919,0,0,1-5.03,5.823l-9.278,1.363a2.891,2.891,0,0,1-.434.032,2.935,2.935,0,0,1-2.927-2.935V148.828m-1-1.073v22.78a3.935,3.935,0,0,0,3.927,3.935,4.1,4.1,0,0,0,.58-.042l9.277-1.364a6.885,6.885,0,0,0,5.885-6.812V149.146l-19.669-1.391Z" style="         fill: #6da2ef;       "/>
    </g>
    <path d="M179.669,167.439a2.217,2.217,0,0,1-2.216-2.217V148.305l9.579.679v14.37a3.523,3.523,0,0,1-3,3.467l-4.046.594A2.181,2.181,0,0,1,179.669,167.439Zm-1.216-18.06v15.843a1.215,1.215,0,0,0,1.394,1.2l4.046-.595a2.517,2.517,0,0,0,2.139-2.476V149.915Z" style="         fill: #6da2ef;       "/>
    <g>
      <path d="M206.375,169.768l13.239-1.945V149.146H198.488v13.809A6.886,6.886,0,0,0,206.375,169.768Z" style="         fill: #352acf;       "/>
      <path d="M218.614,150.146v16.813l-12.384,1.82a6.059,6.059,0,0,1-.869.063,5.886,5.886,0,0,1-5.873-5.887V150.146h19.126m1-1H198.488v13.809a6.888,6.888,0,0,0,6.873,6.887,7,7,0,0,0,1.014-.074l13.239-1.945V149.146Z" style="         fill: #6da2ef;       "/>
    </g>
    <path d="M190.119,68.545,140.254,71.5l-15.009,8.483L142.76,92.975l52.581,33.96,41.092,19.3,7.094-3.443,9.321-26.1A6.85,6.85,0,0,0,251,109.311a328.979,328.979,0,0,0-30.57-24.535c-6.582-4.665-13.027-8.869-19.257-12.659a7.131,7.131,0,0,0-3.5-1.03l-2.37-.07Z" style="         fill: #fff;       "/>
    <path d="M189.21,165.318,66.55,65.208a36.4,36.4,0,0,1-5.229-5.229,150.888,150.888,0,0,1-15.93-24.037c-1.773-3.329-3.335-6.583-4.736-9.719-1.644-3.68-2.458-10.044-2.837-14.274a10.044,10.044,0,0,1,2.335-7.382l1.474-1.742,92.707,81.323,75.248,56.087L189.21,165.318" style="         fill: #fff;       "/>
    <path d="M241.716,160.128l-48.615,6.5a4.671,4.671,0,0,1-5.289-4.63v-38.78l23.565,4.013,34.39,28.21A4.67,4.67,0,0,1,241.716,160.128Z" style="         fill: #6da2ef;       "/>
    <g>
      <path d="M207.02,119.129c-14.342-12.286-30.051-24.228-46.463-32.861l0,0c-3.179-1.812-8.22-.082-11.712,4.179-3.519,4.3-4.213,9.631-1.744,12.373h0c11.69,14.4,26.485,27.452,41.35,39.1l11.815,9.683,18.646-22.754Z" style="         fill: #c8ff00;       "/>
      <path d="M199.946,151.993l-11.814-9.683c-17.778-13.93-31.329-26.745-41.421-39.172-2.653-2.947-1.91-8.546,1.745-13.006,3.609-4.4,8.918-6.249,12.348-4.3l-.247.434.354.352-.271.272-.332-.188c-3.007-1.715-7.773.029-11.079,4.062-3.29,4.014-4.062,9.162-1.757,11.721,10.058,12.387,23.558,25.152,41.286,39.042l11.823,9.689Z" fill="#000000"/>
      <path d="M188.934,142.321c-4.24-3.475-3.5-11.386,1.645-17.669s12.761-8.56,17-5.085l-3.031-2.484c-4.241-3.475-11.853-1.2-17,5.085s-5.886,14.194-1.645,17.669Z" fill="#000000"/>
      <path d="M218.91,128.852c-4.24-3.475-11.921-1.114-17.156,5.273s-6.04,14.383-1.8,17.858,11.922,1.115,17.156-5.273,6.04-14.383,1.8-17.858Z" fill="#000000"/>
      <path d="M217.006,131.176c2.853,2.337,1.889,8.619-2.064,13.441s-9.921,7-12.774,4.665-1.888-8.618,2.065-13.441,9.921-7,12.773-4.665" style="         fill: #ff4a8b;       "/>
    </g>
    <g>
      <path d="M241.6,105.642C228.092,94.069,213.3,82.822,197.837,74.69l0,0c-2.994-1.707-7.743-.077-11.032,3.936-3.315,4.045-3.968,9.071-1.642,11.654h0c11.01,13.559,24.946,25.857,38.947,36.829l11.129,9.119L252.8,114.8Z" style="         fill: #fff;       "/>
      <path d="M234.92,136.619,223.791,127.5c-16.751-13.127-29.518-25.2-39.019-36.9-2.507-2.784-1.807-8.075,1.645-12.287,3.41-4.159,8.424-5.9,11.666-4.054l.387.2-.461.887-.4-.21c-2.842-1.617-7.311.023-10.414,3.811-3.09,3.769-3.818,8.6-1.658,11,9.47,11.661,22.184,23.682,38.885,36.77l11.138,9.127Z" style="         fill: #6da2ef;       "/>
      <path d="M224.565,127.486c-3.994-3.273-3.3-10.724,1.55-16.642s12.019-8.063,16.013-4.789l-2.855-2.34c-3.994-3.273-11.163-1.129-16.013,4.789s-5.544,13.369-1.55,16.643Z" style="         fill: #6da2ef;       "/>
      <path d="M252.622,114.654c-4.093-3.354-11.41-1.192-16.344,4.829s-5.617,13.621-1.524,16.975,11.41,1.192,16.344-4.829,5.617-13.621,1.524-16.975Z" style="         fill: #6da2ef;       "/>
    </g>
    <path d="M250.447,116.762c2.852,2.337,1.888,8.619-2.064,13.441s-9.922,7-12.775,4.665-1.888-8.618,2.065-13.441,9.921-7,12.774-4.665" style="         fill: #ff4a8b;       "/>
    <rect x="55.899" y="-2.076" width="1" height="48.004" transform="translate(2.562 49.551) rotate(-48.408)" style="         fill: #6da2ef;       "/>
    <path d="M232.755,189.4c11.535,16.64,31.768,29.891,29.232,50.919-2.652,21.991-37.165,23.443-41.359,48.7-1.839,11.068,5.813,10.709,3,19.27-2.731,8.308-12.979,9.682-19.135,16.3-19.026,20.451-37.545,30.85-71.681,32.543-17.722.878-23.729-8.649-46.431-9.009-47.99-.762-60.919,30.63-86.33,28.812-.17,3.875.171,7.854,0,11.729,31.908,2.147,32.637-25.406,79.843-23.965,37.44,1.143,70.29,18.639,95.127,4.317,6.572-3.79,4.146-4,15.043-12.715,15.387-12.3,65.641-17.1,75.876-48.4,3.4-10.394-6.973-12.063-3.355-23.454,3.792-11.941,42.288-25.935,26-64.353-11.713-12.78-20.807-23.414-32.519-36.194l-31.74-50.729-17.307,13.478" style="         fill: #c8ff00;       "/>
    <path d="M270.2,189.026c3.748-5.7,7.753,9.833,17.964,10.589-5.3-5.091-2.392-10.234-4.4-16.608-3.612-11.438-12.97-15.764-9.077-25.133,1.328-3.194,9.524,9.705,9.524,9.705.79-2.764-.131-6.942-2.126-11.739-1.583-3.806-8.339-9.331-10.956-13.519-8.1-12.955-15.239-24.675-22.254-26.338l-2.437,3L235.044,134.29q1.063,1.752,2.131,3.687,1.014,1.845,1.884,3.6a45.972,45.972,0,0,0-12.428-7.629,64.92,64.92,0,0,0-11.143-3.534c-4.035,4.835-6.552,10.429-10.588,15.263,1.172,1.488-3.45,1.98-2.732,3.6,7.2,16.268-17.523,38.31,39.386,82.089-6.794-14.752-9.744-46.316,1.974-45.989,3.582.1,6.261,8.454,8.095,12.008,11.313,21.057,23.282,24.4,29.427,27.128a67.738,67.738,0,0,1,22.83,17.525c-3.126-5.629-6.909-20.538-11.3-28.057C284.778,200.63,265.846,195.644,270.2,189.026Z" style="         fill: #ff4a8b;       "/>
    <path d="M261.394,177.685s-9.123-6.87-13.839-13.527c-4.945-6.981-5.563-14.04-1.888-15.644,2.778-1.213,7.858-.113,12.6,9.729C262.319,166.657,261.394,177.685,261.394,177.685Z" style="         fill: #c8ff00;       "/>
    <path d="M195.3,71.017c-8.336-.842-18.591-.208-31.822,2a124.284,124.284,0,0,0-22.094,5.825A16.721,16.721,0,0,1,124.6,75.707l-54-47.471,1.871-7.878,69.924,7.3L195.3,71.017" style="         fill: #6da2ef;       "/>
    <path d="M140.342,71.287a12.222,12.222,0,0,1-8.092-2.994L98.871,38.952l.66-.752L132.91,67.541a11.525,11.525,0,0,0,11.466,2.048c20.443-7.227,35.961-6.527,41.061-6.294l.7.031-.039,1-.7-.032c-5.054-.227-20.424-.925-40.683,6.239A13.125,13.125,0,0,1,140.342,71.287Z" style="         fill: #fff;       "/>
    <path d="M158.819,56.854a5.063,5.063,0,0,1-3.352-1.279l-5.157-4.588a1.72,1.72,0,0,1,.8-2.969c1.554-.32,3.118-.612,4.653-.868,3.257-.545,6.386-1,9.3-1.356l.122.993c-2.9.352-6.012.806-9.256,1.349-1.522.254-3.074.543-4.615.86a.716.716,0,0,0-.556.525.7.7,0,0,0,.216.718l5.157,4.588a4.023,4.023,0,0,0,3.461.949c1.432-.292,2.889-.563,4.331-.8,3.709-.62,7.247-1.124,10.516-1.5l.114.994c-3.252.372-6.774.874-10.466,1.491-1.429.239-2.874.507-4.3.8A4.828,4.828,0,0,1,158.819,56.854Z" style="         fill: #fff;       "/>
    <path d="M41.627,2.825,77.268,34.09l19.614,6.2a29.426,29.426,0,0,0,16.367.447A162.189,162.189,0,0,1,151.837,35.4L121.582,10.608a30.839,30.839,0,0,0-17.541-6.921L47.761.015A7.029,7.029,0,0,0,42.1,2.3Z" fill="#000000"/>
    <path d="M50.507,10.615l11.536,10.12A147.5,147.5,0,0,1,128,15.864l-6.414-5.256c-.026-.021-.054-.039-.08-.061a344.487,344.487,0,0,0-70.995.068Z" style="         fill: url(#&#1041;&#1077;&#1079;&#1099;&#1084;&#1103;&#1085;&#1085;&#1099;&#1081;_&#1075;&#1088;&#1072;&#1076;&#1080;&#1077;&#1085;&#1090;_3-i4);       "/>
    <ellipse cx="82.526" cy="40.059" rx="14.709" ry="9.927" transform="translate(-0.767 78.498) rotate(-50.666)" style="         fill: #6da2ef;       "/>
    <ellipse cx="81.622" cy="39.318" rx="12.533" ry="7.858" transform="translate(-0.525 77.528) rotate(-50.666)" style="         fill: #fff;       "/>
  </g>
</svg></g><!--ITEM: Illustration component 5--><g transform="translate(520.0 625.0) rotate(0.0 718.75 1035.0)  scale(2.4028014575602583 2.4033437826541277)"><svg width="598.26" height="861.3" viewBox="0.0 0.0 598.26 861.3"><defs xmlns:xlink="http://www.w3.org/1999/xlink">
    
    <linearGradient id="&#1041;&#1077;&#1079;&#1099;&#1084;&#1103;&#1085;&#1085;&#1099;&#1081;_&#1075;&#1088;&#1072;&#1076;&#1080;&#1077;&#1085;&#1090;_3-i5" data-name="&#1041;&#1077;&#1079;&#1099;&#1084;&#1103;&#1085;&#1085;&#1099;&#1081; &#1075;&#1088;&#1072;&#1076;&#1080;&#1077;&#1085;&#1090; 3" x1="540.945" y1="124.61" x2="473.701" y2="103.964" gradientUnits="userSpaceOnUse">
      <stop offset="0" stop-color="#352acf" fill="#000000"/>
      <stop offset="1" stop-color="#232276" fill="#000000"/>
    </linearGradient>
    <linearGradient id="linear-gradient-i5" x1="496.84" y1="841.202" x2="571.71" y2="-268.901" gradientUnits="userSpaceOnUse">
      <stop offset="0.289" stop-color="#6da2ef" fill="#000000"/>
      <stop offset="0.577" stop-color="#fff" fill="#000000"/>
    </linearGradient>
    <linearGradient id="linear-gradient-2-i5" x1="171.113" y1="214.994" x2="269.758" y2="806.868" gradientUnits="userSpaceOnUse">
      <stop offset="0.289" stop-color="#6da2ef" fill="#000000"/>
      <stop offset="0.577" stop-color="#352acf" fill="#000000"/>
    </linearGradient>
    <linearGradient id="linear-gradient-3-i5" x1="414.105" y1="420.512" x2="541.98" y2="1074.453" xlink:href="#linear-gradient-2-i5"/>
    <linearGradient id="linear-gradient-4-i5" x1="275.914" y1="197.527" x2="374.56" y2="789.401" xlink:href="#linear-gradient-2-i5"/>
    <linearGradient id="linear-gradient-5-i5" x1="347.259" y1="792.889" x2="416.593" y2="-235.111" xlink:href="#linear-gradient-i5"/>
    <linearGradient id="linear-gradient-6-i5" x1="456.545" y1="800.259" x2="525.878" y2="-227.741" xlink:href="#linear-gradient-i5"/>
    <linearGradient id="linear-gradient-7-i5" x1="321.66" y1="791.162" x2="390.993" y2="-236.838" xlink:href="#linear-gradient-i5"/>
    <linearGradient id="linear-gradient-8-i5" x1="298.759" y1="284.887" x2="289.121" y2="189.926" xlink:href="#linear-gradient-i5"/>
    <linearGradient id="&#1041;&#1077;&#1079;&#1099;&#1084;&#1103;&#1085;&#1085;&#1099;&#1081;_&#1075;&#1088;&#1072;&#1076;&#1080;&#1077;&#1085;&#1090;_6-i5" data-name="&#1041;&#1077;&#1079;&#1099;&#1084;&#1103;&#1085;&#1085;&#1099;&#1081; &#1075;&#1088;&#1072;&#1076;&#1080;&#1077;&#1085;&#1090; 6" x1="467.653" y1="93.305" x2="407.909" y2="114.022" gradientUnits="userSpaceOnUse">
      <stop offset="0.561" stop-color="#352acf" fill="#000000"/>
      <stop offset="1" stop-color="#232276" fill="#000000"/>
    </linearGradient>
    <linearGradient id="&#1041;&#1077;&#1079;&#1099;&#1084;&#1103;&#1085;&#1085;&#1099;&#1081;_&#1075;&#1088;&#1072;&#1076;&#1080;&#1077;&#1085;&#1090;_6-2-i5" x1="543.442" y1="157.113" x2="462.22" y2="125.33" xlink:href="#&#1041;&#1077;&#1079;&#1099;&#1084;&#1103;&#1085;&#1085;&#1099;&#1081;_&#1075;&#1088;&#1072;&#1076;&#1080;&#1077;&#1085;&#1090;_6-i5"/>
  </defs>
  <g>
    <g>
      <path d="M481.061,14.094,530.083,44.48a13.243,13.243,0,0,1,6.255,10.7c.8,18.927,1.058,38.914.566,59.859a909.482,909.482,0,0,1-7.41,96.415L384.787,168.8Z" style="         fill: url(#&#1041;&#1077;&#1079;&#1099;&#1084;&#1103;&#1085;&#1085;&#1099;&#1081;_&#1075;&#1088;&#1072;&#1076;&#1080;&#1077;&#1085;&#1090;_3-i5);       "/>
      <path d="M486.971,17.757l-62.614,95.667c21.2,7.321,44.2,21.867,65.406,29.188,5.719-13.552,18.864-48.012,23.923-64.845,3.975-13.224,7.085-25.789,9.542-37.536Z" style="         fill: #c8ff00;       "/>
    </g>
    <path d="M275.571,141.334c-2.267-10.367,37.735-29.068,52.745-35.647,25.1-11,45.68-7.361,56.471-6.093L496.24,132.026c46.441,23.891,59.278,140.493,62.676,177.116a19.082,19.082,0,0,0-8.969-4.888c-10.9-2.369-24.127,6.157-32.563,21.5a883,883,0,0,0-23.409-86.085q-5.478-16.747-11.327-32.47" style="         fill: #6da2ef;       "/>
    <polygon points="286.944 128.704 278.219 158.09 308.105 228.718 340.838 250.601 363.335 187.178 353.997 145.02 306.855 123.714 286.944 128.704" style="         fill: #6da2ef;       "/>
    <path d="M462.086,364.647l13.871-9.594c-5.63-19.766,2.7-110.857,8.255-143.6q6.529-15.708,13.06-31.415L348.465,145.79,315.173,283.951Z" style="         fill: #6da2ef;       "/>
    <g>
      <circle cx="566.919" cy="379.273" r="14.752" style="         fill: #fff;       "/>
      <g>
        <path d="M517.384,325.755c8.436-15.344,21.663-23.87,32.563-21.5a19.082,19.082,0,0,1,8.969,4.888c-1.23-13.255-3.7-36.988-8.546-63.009-9.027-18.167-32.46.825-40.208,26.337-3.346,11.017-1.221,18.155-1.221,18.155Q513.638,308.583,517.384,325.755Z" style="         fill: url(#linear-gradient-i5);       "/>
        <path d="M565.337,307.213c-5.079-8.994-20.874-9.393-35.279-.891S508.094,329.008,513.173,338s20.875,9.393,35.279.89S570.416,316.207,565.337,307.213Zm-19.3,27.407c-10.626,6.272-21.833,6.766-25.031,1.1s2.824-15.337,13.45-21.609,21.832-6.765,25.03-1.1S556.665,328.348,546.04,334.62Z" style="         fill: #ff0068;       "/>
        <path d="M581.04,347.051l-16.031-6.772L559.8,313.641l-.021.012a6.34,6.34,0,0,0-.286-.642c-3.2-5.662-14.4-5.168-25.03,1.1-9.3,5.488-15.07,13.581-14.226,19.312.121.819,3.885,28.932,5.2,36.217,1.669,9.244,7.205,12.931,15.663,13.481,15.477,1.006,19.25-3.415,19.25-7.566,0-3.637-7.661-5.534-20.025-7.52,5.718.919,11.036,1.619,18.594,4.919,5.05,2.463,7.788,21.6,14.48,21.781,4.927.135,4.837-5.319,4.356-8.572,1.5,2.818,4.088,6.173,7.481,4.51,1.243-.61,2.812-2.2,3.064-5.419.9.983,6.358.932,5.37-10.144,2.254,1.321,4.317.243,4.309-1.529C597.9,358.64,589.613,350.677,581.04,347.051Z" style="         fill: #c8ff00;       "/>
        <path d="M577.845,387.392a.5.5,0,0,1-.494-.43l-1.261-8.868a19.761,19.761,0,0,0-7.59-12.972q-.345-.266-.7-.527a70.936,70.936,0,0,0-8.288-5.338.5.5,0,0,1,.483-.877,72.316,72.316,0,0,1,8.4,5.413q.359.267.709.537a20.754,20.754,0,0,1,7.972,13.624l1.26,8.868a.5.5,0,0,1-.424.565A.581.581,0,0,1,577.845,387.392Z" style="         fill: #030a24;       "/>
        <path d="M588.3,385.757h-.032a.5.5,0,0,1-.467-.531,47.141,47.141,0,0,0-.323-9.27c-.12-.89-.265-1.781-.433-2.649a21.38,21.38,0,0,0-3.92-8.925,36.146,36.146,0,0,0-7.369-7.279.5.5,0,1,1,.593-.8,37.162,37.162,0,0,1,7.573,7.481,22.363,22.363,0,0,1,4.105,9.339c.171.886.319,1.8.441,2.7a48.145,48.145,0,0,1,.332,9.468A.5.5,0,0,1,588.3,385.757Z" style="         fill: #030a24;       "/>
        <path d="M593.666,375.613a.5.5,0,0,1-.5-.459,39.127,39.127,0,0,0-5.206-16.5.5.5,0,1,1,.863-.5,40.068,40.068,0,0,1,5.339,16.921.5.5,0,0,1-.457.539Z" style="         fill: #030a24;       "/>
        <path d="M573.827,395.212a5.559,5.559,0,0,1-2.528-.6,5.641,5.641,0,0,1-2.309-2.2L562.5,378.151a9.115,9.115,0,0,0-4.816-4.661,51.026,51.026,0,0,0-16.336-3.8.5.5,0,0,1-.467-.531.521.521,0,0,1,.532-.467,52.085,52.085,0,0,1,16.654,3.878,10.117,10.117,0,0,1,5.343,5.171l6.469,14.217a4.622,4.622,0,0,0,1.873,1.763,4.68,4.68,0,0,0,2.555.471.5.5,0,0,1,.1.994A5.431,5.431,0,0,1,573.827,395.212Z" style="         fill: #030a24;       "/>
        <path d="M520.41,334.839a.5.5,0,0,1-.5-.443c-1.141-10.052,10.26-17.605,15.74-21.235.681-.452,1.272-.843,1.74-1.173a.5.5,0,0,1,.576.816c-.473.335-1.073.733-1.763,1.191-5.314,3.519-16.371,10.844-15.3,20.288a.5.5,0,0,1-.441.553A.544.544,0,0,1,520.41,334.839Z" style="         fill: #030a24;       "/>
      </g>
    </g>
    <path d="M415.464,197.558l-.97-.238c1.671-6.782,3.058-13.723,4.125-20.629.816-5.287,1.461-10.663,1.916-15.979l1,.086c-.457,5.338-1.105,10.737-1.924,16.045C418.536,183.779,417.142,190.749,415.464,197.558Z" style="         fill: #352acf;       "/>
    <path d="M156.776,325.755c-22.916,47.562-42.813,86.938-42.813,86.938,3.281-6.062,21.878-3.294,41.824,6.279,20.135,9.663,34.011,22.6,30.993,28.884l.554.275L276.4,306.108S179.692,278.193,156.776,325.755Z" style="         fill: url(#linear-gradient-2-i5);       "/>
    <path d="M401.255,650.24c24.8,26.694,49.172,23.541,73.247,0,3.23-56.027,3.885-146.463,3.876-195.809,0-21.616-101.5-38.193-100.06-14.817C380.267,471.283,396.458,625.982,401.255,650.24Z" style="         fill: url(#linear-gradient-3-i5);       "/>
    <g>
      <path d="M489.7,861.334c-17.879,0-40.518-13.286-53.626-27.631-20.493-22.428-23.835-31.028-23.835-61.347,0-29.352-11.852-121.064-11.971-121.987a1,1,0,0,1,1.488-1c.4.227,40.375,22.542,71.918-2.62a1,1,0,0,1,1.624.783c0,54.318,4.24,95.177,4.605,98.591a375.114,375.114,0,0,1,21.194,39.193c13.2,28.67,17.236,49.276,11.988,61.249-3.561,8.122-9.682,12.953-18.193,14.358A31.806,31.806,0,0,1,489.7,861.334ZM402.49,652.006c1.7,13.35,11.745,93.233,11.745,120.35,0,29.651,3.268,38.062,23.312,60,14.055,15.383,39.225,29.549,57.016,26.6,7.8-1.287,13.414-5.725,16.686-13.188,12.01-27.4-32.708-98.053-33.161-98.763a1,1,0,0,1-.152-.427c-.046-.413-4.533-41.447-4.64-97.01C444.794,670.728,410.507,655.967,402.49,652.006Z" style="         fill: #c8ff00;       "/>
      <path d="M489.592,861.334c-17.878,0-40.517-13.286-53.626-27.631-19.3-21.125-23.3-30.418-23.782-55.24-.052-2.7.027-3.655,1.1-3.718,1.149-.041,1.227.934,1.49,3.616,1.667,16.978,7.388,25.935,22.666,42.655,14.055,15.382,39.216,29.531,57.017,26.6,7.8-1.288,13.414-5.725,16.685-13.188h0a23.9,23.9,0,0,0,1.69-6.215,1.019,1.019,0,0,1,1-.858,1,1,0,0,1,.979.887c.846,7.444.227,13.61-1.841,18.325-3.56,8.122-9.681,12.953-18.192,14.358A31.81,31.81,0,0,1,489.592,861.334Zm-74.812-71.5c1.612,16.388,6.871,25.239,22.663,42.521,14.055,15.383,39.22,29.549,57.017,26.6,7.8-1.287,13.414-5.725,16.685-13.188a28.037,28.037,0,0,0,2.039-11.023c-.067.166-.137.329-.207.49-3.56,8.122-9.68,12.953-18.191,14.357-18.46,3.057-44.4-11.447-58.82-27.223C424.054,809.33,417.827,800.893,414.78,789.832Z" style="         fill: #c8ff00;       "/>
      <g>
        <path d="M414.512,793.9c0-6.215-.515-15.123-1.333-25.347.036,1.355.056,2.633.056,3.8,0,9.1.293,16.2,1.28,22.334C414.514,794.423,414.512,794.168,414.512,793.9Z" style="         fill: #c8ff00;       "/>
        <path d="M474.5,668.647c-.132-6.75-.209-13.8-.209-21.113-32.461,25.892-73.037,2.706-73.037,2.706s1.059,8.165,2.547,20.422C411.167,674.4,445.558,689.791,474.5,668.647Z" style="         fill: #c8ff00;       "/>
      </g>
      <path d="M411.683,744.468c3.858,12.045,21.965,16.484,44.576,13.2,20.417-2.963,21.319-13.2,21.319-13.2s14.057,20.453,10.163,16.935c-3.915-3.539-13.448-5.213-28.827-.994-23.895,6.555-41.445,34.281-41.445,34.281s-5.434-15.573-4.4-29.388S411.683,744.468,411.683,744.468Z" style="         fill: #c8ff00;       "/>
    </g>
    <path d="M234.16,369.739l-12.889,22c26.994,7.072,52.468,14.6,81.685,24.047,26.644,8.615,51.969,17.6,75.938,26.743q4.311-48.733,8.621-97.467l-96.783-61.111Z" style="         fill: url(#linear-gradient-4-i5);       "/>
    <g>
      <path d="M186.78,447.856c3.018-6.289-10.858-19.221-30.993-28.884-19.946-9.573-38.543-12.341-41.824-6.279L81.455,480.162l-36.739,2.244c-2.3.2-21.9,3.007-24.116,3.657-21.765,6.383-25.426,32.841-6.172,48.729,32.652,18.741,49.3,25.644,84.531,38.924,8.337,3.143,18.639,1.839,21.488-3.367l66.887-122.218Z" style="         fill: #fff;       "/>
      <path d="M17.143,536.833c31.049,21.291,64.346,32.343,91.906,38.573,5.789,1.308,22.667-14.5,12.009-23.778a236.472,236.472,0,0,0-39.52-25.78c-14.87-7.7-24.989-15.275-57.822-18.442C-6.271,504.514-4.953,521.682,17.143,536.833Z" style="         fill: #65c400;       "/>
      <path d="M36.636,549.993a1,1,0,0,1-.812-1.581c3.212-4.5,6.559-8.984,9.951-13.33,5.346-6.852,11-13.613,16.792-20.1a1,1,0,1,1,1.49,1.334C58.291,522.77,52.67,529.5,47.351,536.312c-3.374,4.324-6.7,8.786-9.9,13.262A1,1,0,0,1,36.636,549.993Z" style="         fill: #fff;       "/>
      <path d="M52.5,558.3a1,1,0,0,1-.816-1.577c3.519-4.978,7.214-9.953,10.984-14.786,5.348-6.854,11-13.615,16.793-20.095a1,1,0,0,1,1.491,1.334c-5.765,6.446-11.386,13.172-16.707,19.992-3.75,4.807-7.427,9.756-10.928,14.709A1,1,0,0,1,52.5,558.3Z" style="         fill: #fff;       "/>
      <path d="M71.089,566.059a1,1,0,0,1-.814-1.581c3.2-4.484,6.548-8.968,9.948-13.326,5.351-6.858,11-13.618,16.793-20.094a1,1,0,1,1,1.49,1.334c-5.762,6.442-11.383,13.168-16.707,19.99-3.381,4.336-6.711,8.8-9.9,13.258A1,1,0,0,1,71.089,566.059Z" style="         fill: #fff;       "/>
      <path d="M93.536,573.3a1,1,0,0,1-.807-1.589c2.445-3.351,4.981-6.708,7.533-9.98,5.343-6.849,10.993-13.609,16.793-20.095a1,1,0,0,1,1.491,1.334c-5.771,6.452-11.392,13.178-16.707,19.991-2.54,3.255-5.061,6.6-7.5,9.929A1,1,0,0,1,93.536,573.3Z" style="         fill: #fff;       "/>
      <path d="M145.394,525.763a1,1,0,0,1-.876-1.48c3.246-5.933-7.227-18.933-24.9-30.911-16.678-11.3-32.911-15.525-37.6-12.379a1,1,0,0,1-1.113-1.662c6.085-4.075,23.58,1.369,39.836,12.384,15.935,10.8,30.011,25.353,25.537,33.529A1,1,0,0,1,145.394,525.763Z" style="         fill: #c8ff00;       "/>
      <path d="M145.678,519.144c-2.054-7.166-11.631-17.2-25.5-26.6-16.976-11.5-33.495-15.879-38.72-12.381l7.178,5.33c12.583,11.414,11.249,30.914,11.249,30.914,9.165,5.593,16.283,12.153,23.91,17.723l21.886-14.985Z" style="         fill: #c8ff00;       "/>
      <path d="M132.613,549.117a1,1,0,0,1-.988-.853c-.719-4.836-4.6-10.825-9.885-15.259-1.671-1.4-2.919-2.572-4.125-3.7-5.382-5.048-9.271-8.7-43.853-24.76-17.151-7.969-48.438-13.015-65.912-7.515a1,1,0,1,1-.6-1.908c18.182-5.723,49.5-.686,67.355,7.608,34.875,16.2,38.861,19.94,44.379,25.116,1.187,1.113,2.414,2.264,4.042,3.629,5.726,4.8,9.779,11.124,10.578,16.5a1,1,0,0,1-.842,1.137A1.053,1.053,0,0,1,132.613,549.117Z" style="         fill: #c8ff00;       "/>
      <path d="M108,576.63a10.265,10.265,0,0,1-2.77-.373,1,1,0,0,1,.537-1.925c6.617,1.839,14.06-5.44,15.41-7.907L186,448.482a1,1,0,0,1-.121-1.059c1.236-2.576-1.167-6.955-6.594-12.012-5.782-5.388-14.28-10.907-23.93-15.537-20.96-10.059-37.87-11.587-40.513-6.706L82.357,480.6a1,1,0,0,1-1.188.525l-.471-.141c-17.69-1.719-40.395-2.595-59.321,5.839C5.523,493.883,1.934,505.191,1.715,513.432a1,1,0,0,1-1,.974H.689a1,1,0,0,1-.974-1.027c.236-8.816,4.042-20.9,20.847-28.387,19.36-8.628,42.411-7.744,60.349-6l32.15-66.731c3.66-6.762,22.2-4.245,43.159,5.812,9.827,4.716,18.5,10.354,24.428,15.877,5.688,5.3,8.26,10.024,7.361,13.446a1,1,0,0,1,.2,1.219L122.925,567.387C121.336,570.292,114.8,576.63,108,576.63Z" style="         fill: #c8ff00;       "/>
      <g>
        <path d="M171.775,426.57l-17.957,32.509A14.191,14.191,0,0,0,152.5,469.5l6.322,24.394c.861,3.32,4.132,2.41,5.78-.6l28.632-48.613Z" style="         fill: #fff;       "/>
        <path d="M161.024,497a2.994,2.994,0,0,1-.38-.024,3.423,3.423,0,0,1-2.787-2.832l-6.321-24.394a15.124,15.124,0,0,1,1.407-11.154l17.957-32.51a1,1,0,0,1,1.52-.281l21.461,18.112a1,1,0,0,1,.217,1.273L165.466,493.8C164.4,495.751,162.65,497,161.024,497Zm11.037-68.88-17.368,31.443a13.14,13.14,0,0,0-1.222,9.685l6.322,24.394c.148.572.46,1.271,1.1,1.35.764.1,1.988-.621,2.838-2.178L191.947,444.9Z" style="         fill: #c8ff00;       "/>
      </g>
      <path d="M161.532,413.308c-21.214-10.221-41.853-13.656-45.033-7l-7.743,16.133c3.18-6.652,22.954-3.759,44.167,6.462s35.832,23.9,32.652,30.549l8.609-15.591C197.364,437.205,182.745,423.528,161.532,413.308Z" style="         fill: #c8ff00;       "/>
    </g>
    <path d="M357.633,99.484l125.3,23.9,7.157,62.991c-15.206,78.538-12.469,138.295-12.469,138.295h0s.5,86.505.757,129.757c-1.786,18.869-27.437,30.59-47.974,30.562-20.483-.029-44.594-11.693-51.076-38.756,0,0-12-120.482-107.449-141.315,11.256-14.445,34.91-55.546,44.042-62.937,5.626-4.554,15.446-34.129,24.033-64.785" style="         fill: url(#linear-gradient-5-i5);       "/>
    <path d="M477.484,294.632c-6.892-30.066-45.019-43.136-73.1-50.352-38.939-10.006-67.786-10.93-88.195-2.823l-2.953-7.436c22.037-8.754,52.5-7.933,93.14,2.511,47.843,12.295,72.915,30.188,78.9,56.313Z" style="         fill: #6da2ef;       "/>
    <path d="M277.289,187.169a.483.483,0,0,1-.2-.041c-.11-.047-.247-.1-.406-.16-2.534-.966-10.246-3.9-10.715-22.881a.5.5,0,0,1,.488-.512h.012a.5.5,0,0,1,.5.487c.453,18.307,7.693,21.065,10.072,21.972.174.066.325.124.446.176a.5.5,0,0,1-.2.959Z" style="         fill: #030a24;       "/>
    <path d="M479.388,125.012l-6.878,33.769a3.816,3.816,0,0,0,1,3.42l21.451,22.1a3.817,3.817,0,0,0,4.97.439l25.3-18.226a3.815,3.815,0,0,0,1-5.142A115.219,115.219,0,0,0,485,122.442,3.819,3.819,0,0,0,479.388,125.012Z" style="         fill: url(#linear-gradient-6-i5);       "/>
    <path d="M525.833,165.972a3.822,3.822,0,0,1-.6.545l-25.3,18.226a3.816,3.816,0,0,1-4.97-.439l-21.451-22.1a3.816,3.816,0,0,1-1-3.42L478.982,127l-6.754-1.966-6.588,32.344a10.823,10.823,0,0,0,2.84,9.7l21.45,22.1a10.891,10.891,0,0,0,7.772,3.287,10.764,10.764,0,0,0,6.328-2.042l24.936-17.963Q527.45,169.137,525.833,165.972Z" style="         fill: #6da2ef;       "/>
    <g>
      <path d="M398.923,101.836l-17.057,29.945a3.819,3.819,0,0,1-3,1.915l-30.7,2.513a3.817,3.817,0,0,1-4.03-2.942l-7.042-30.375a3.815,3.815,0,0,1,2.636-4.526A115.229,115.229,0,0,1,396.4,96.21,3.819,3.819,0,0,1,398.923,101.836Z" style="         fill: url(#linear-gradient-7-i5);       "/>
      <path d="M337,102.086a3.844,3.844,0,0,0,.094.806l7.043,30.375a3.816,3.816,0,0,0,4.029,2.942l30.7-2.513a3.816,3.816,0,0,0,3-1.915L397.917,103.6l6.378,2.968-16.337,28.681a10.823,10.823,0,0,1-8.526,5.432l-30.7,2.514a10.889,10.889,0,0,1-8.013-2.643,10.762,10.762,0,0,1-3.418-5.7l-6.942-29.938Q333.7,103.4,337,102.086Z" style="         fill: #6da2ef;       "/>
    </g>
    <g>
      <g>
        <path d="M321.814,191.4c-19.119-6.488-30.119-6.824-49.239-13.311-3.264,7.272-20.954,40.722-11.048,62.864,6.3,12.469,21.488,21.642,36.02,17.872,25.011-6.489,29.556-33.1,29.51-33.458C327.057,214.35,317.705,214.35,321.814,191.4Z" style="         fill: url(#linear-gradient-8-i5);       "/>
        <path d="M321.834,209.908c-1.165-3.995-1.639-9.468-.02-18.511-19.12-6.488-30.119-6.824-49.239-13.311-1.721,3.834-7.448,14.945-11.031,27.837l6.611,10.369,18.789,8.915L305.8,222.78Z" style="         fill: #c8ff00;       "/>
        <path d="M305.5,256.3a.5.5,0,0,1-.247-.934c5.422-3.09,15.13-10.144,19.216-22.663A37.656,37.656,0,0,0,326.3,220.48a.5.5,0,0,1,.493-.507h.007a.5.5,0,0,1,.5.493,38.661,38.661,0,0,1-1.882,12.543c-4.192,12.839-14.125,20.06-19.674,23.222A.5.5,0,0,1,305.5,256.3Z" style="         fill: #030a24;       "/>
        <path d="M321.39,208.145v0c-12.945,12.211-30.517,15.37-43.218,8.415-9.2-5.037-13.109-13.882-14.472-17.531-3.82-1.592-8.553,8.348-4.317,14.375,2.25,5.36,7.185,13.131,14.962,16.72,15.272,7.048,40.525,5.883,48.975-16.324C324.53,211.452,322.861,206.878,321.39,208.145Z" style="         fill: #ff0068;       "/>
        <path d="M273.677,230.959a.509.509,0,0,1-.21-.045c-5.987-2.764-11.076-8.809-14.715-17.482a.5.5,0,0,1,.921-.387c3.541,8.439,8.457,14.3,14.214,16.96a.5.5,0,0,1-.21.954Z" style="         fill: #030a24;       "/>
      </g>
      <path d="M266.335,149.716c-1.39,34.813,8.786,38.946,11.255,40.665l15.342,4.289,12.867,1.815c10.483,2.661,21.447-.331,28.247-7.883,8.191-9.1,9.147-23.481,1.922-34.778a4.809,4.809,0,0,0-3.982-2.271,7.272,7.272,0,0,0-2.432.392c-6.083,2.108-58.075-25.869-56.423-12.09" style="         fill: #c8ff00;       "/>
      <g>
        <polygon points="358.931 170.022 267.103 132.026 278.219 125.259 363.335 158.867 358.931 170.022" style="         fill: #fff;       "/>
        <polygon points="277.289 208.147 306.54 137.346 313.306 148.463 288.444 212.552 277.289 208.147" style="         fill: #fff;       "/>
        <g>
          <g>
            <path d="M361.133,164.444l6.195-15.592-7.068-2.809c-3.9-1.551-9.842,4.173-13.264,12.784s-3.031,16.85.873,18.4l7.069,2.809,6.195-15.592Z" style="         fill: #fff;       "/>
            <path d="M355.218,180.686l-7.534-2.993c-4.223-1.678-4.729-10.046-1.153-19.051s9.694-14.738,13.914-13.063l7.533,2.993Zm3.688-34.394c-3.573,0-8.523,5.364-11.445,12.719-3.258,8.2-2.987,16.33.592,17.752l6.605,2.624,12.021-30.255-6.6-2.624A3.153,3.153,0,0,0,358.906,146.292Z" style="         fill: #352acf;       "/>
          </g>
          <g>
            <ellipse cx="361.133" cy="164.444" rx="16.778" ry="7.606" transform="translate(74.961 439.334) rotate(-68.33)" style="         fill: #352acf;       "/>
            <path d="M356.306,180.792a4.154,4.154,0,0,1-1.552-.291c-2.082-.827-3.325-3.31-3.5-6.994a30.074,30.074,0,0,1,2.345-12.056c3.576-9,9.693-14.746,13.913-13.064,2.081.827,3.324,3.311,3.5,6.993a30.052,30.052,0,0,1-2.344,12.057C365.507,175.387,360.372,180.792,356.306,180.792Zm9.667-31.692c-3.572,0-8.521,5.364-11.443,12.72h0a29.032,29.032,0,0,0-2.276,11.64c.155,3.268,1.173,5.439,2.869,6.112,3.584,1.429,9.357-4.305,12.614-12.5a29.047,29.047,0,0,0,2.275-11.64c-.154-3.267-1.173-5.438-2.868-6.111A3.135,3.135,0,0,0,365.973,149.1Z" style="         fill: #352acf;       "/>
          </g>
        </g>
      </g>
      <path d="M288.75,131.36l.866-.083a10.71,10.71,0,0,0-8.443-7.473c-8.969-1.17-21.3,9.145-19.462,21.986,1.984,13.846,14.2,12.037,14.2-1.508C280.475,138.423,284.182,137.22,288.75,131.36Z" style="         fill: #c8ff00;       "/>
      <path d="M303.5,134.269l-1.657-3.191c-1.424-5.511-4.857-7.214-7.451-7.562-11.177-1.5-21.945,10.387-19.764,25.821,2.257,15.968,18.441,15.674,16.661,4.558C296.128,147.327,298.658,140.837,303.5,134.269Z" style="         fill: #c8ff00;       "/>
      <path d="M314.869,137.045l-2.235-3.068c-2.336-5.509-6.234-6.774-9.041-6.756-7.951.05-13.888,5.475-15.689,13.265a25.549,25.549,0,0,0,.846,13.656C292.291,165,306.1,164.5,303.5,154.086,307.656,146.566,310.712,144.565,314.869,137.045Z" style="         fill: #c8ff00;       "/>
      <path d="M327.656,144.779a9.094,9.094,0,0,0-.056-6.518,10.115,10.115,0,0,0-7.166-6.05c-12.943-2.339-20.479,15.724-15.593,26.976,5.564,12.815,18.06,4.7,14.342-5.2C317.937,150.673,321.882,142.5,327.656,144.779Z" style="         fill: #c8ff00;       "/>
      <path d="M305.8,196.485c10.483,2.661,21.447-.331,28.247-7.883,8.191-9.1,9.147-23.481,1.922-34.778a4.809,4.809,0,0,0-3.982-2.271,7.272,7.272,0,0,0-2.432.392c-6.083,2.108-9.392,12.78-7.74,26.559" style="         fill: #c8ff00;       "/>
      <path d="M321.421,173.918a.5.5,0,0,1-.5-.483c-.378-11.427,2.946-20.048,8.469-21.963a.5.5,0,1,1,.328.945c-5.1,1.768-8.162,10-7.8,20.985a.5.5,0,0,1-.484.516Z" style="         fill: #030a24;       "/>
    </g>
    <g>
      <path d="M425.68,164.444c-2.913-1.284,3.526-7.815.613-9.1l50.9-89.252a264.519,264.519,0,0,1,40.167,43.259c-6.049,2.976-19.54,9.913-35.04,18.623" style="         fill: #65c400;       "/>
      <path d="M411.421,120.633a90.474,90.474,0,0,0-35.559-37.241,48.527,48.527,0,0,1,8.794-9.239,98.929,98.929,0,0,1,12.349-8.06h0l-5.266-8.145L354,86.1c10.3,7.419,52.42,33.919,67.036,74.656-.877-6.348,1.938,2.307,1.06-4.042-.535-3.874-5.132-22.693-6.467-26.369A87.31,87.31,0,0,0,411.421,120.633Z" style="         fill: #c8ff00;       "/>
      <path d="M402.224,62.766c-4.337,2.129-15.015,8.765-20.356,13.9a59.073,59.073,0,0,0-6.006,6.728,89.036,89.036,0,0,1,45.171,77.363c-4.4,5.976,12.859-2.767,15.379-18.143Z" style="         fill: url(#&#1041;&#1077;&#1079;&#1099;&#1084;&#1103;&#1085;&#1085;&#1099;&#1081;_&#1075;&#1088;&#1072;&#1076;&#1080;&#1077;&#1085;&#1090;_6-i5);       "/>
      <path d="M421.033,160.755c9.072-10.3,40.2-69.247,50.217-83.433,5.416,2.615,22.1,25.376,26.022,29.915-12.038,6.641-54.881,30.344-69.906,53.518C424.82,164.683,424.333,157.861,421.033,160.755Z" style="         fill: url(#&#1041;&#1077;&#1079;&#1099;&#1084;&#1103;&#1085;&#1085;&#1099;&#1081;_&#1075;&#1088;&#1072;&#1076;&#1080;&#1077;&#1085;&#1090;_6-2-i5);       "/>
      <g>
        <g>
          <path d="M427.742,151.553s44.251-77.387,47.048-79.64c-15.841,3.364-40.638-3.365-56.479,0-1.4,2.035-5.043,10.381-7.493,16.14-1.253,2.944-1.8,3.606-.158,6.353C413.849,99.745,420.228,116.2,427.742,151.553Z" style="         fill: #ff4a8b;       "/>
          <path d="M409.827,90.3a4.537,4.537,0,0,0,.555,3.778c2.133,4.673,14.211-2.069,20.891-5.06A55.9,55.9,0,0,0,448.749,76.7l-19.57,1.229c-2.5.532-10.948-3.237-13.449-2.706C414.232,78.865,411.932,85.277,409.827,90.3Z" style="         fill: #ff0068;       "/>
          <path d="M450.4,1.558c-14.66,4.319-45.7,21.3-53.052,25.534a2.91,2.91,0,0,0,.6,5.3c1.852.571,3.686,1.142,5.29,1.721C387.724,44.3,380.2,61.07,387.744,74.2,393.953,85,408.42,90.406,422.05,85.843l45.5-15.581c15.317-7.409,34.121-25.107,28.779-44.863C491.092,6.027,469.519-4.092,450.4,1.558Z" style="         fill: #ff4a8b;       "/>
          <path d="M496.329,25.4C491.092,6.027,469.519-4.092,450.4,1.558c-.351.1-.72.221-1.089.338,1.953,8.3,22.486,12.285,25.368,24.564,1.986,8.465,1.629,17.412-3.642,26.607-.033,6.377-10.563,3.01-10.6,9.387.13,1.535,6.431,8.408,7.5,8.043C483.251,63.088,501.671,45.155,496.329,25.4Z" style="         fill: #352acf;       "/>
          <ellipse cx="445.159" cy="39.686" rx="3.736" ry="7.606" transform="translate(243.901 438.731) rotate(-68.33)" style="         fill: #ff0068;       "/>
          <ellipse cx="436.337" cy="21.755" rx="4.716" ry="2.983" transform="translate(97.879 297.997) rotate(-42.075)" fill="#000000"/>
          <path d="M433.509,58.553a13.014,13.014,0,0,0-7.079-10.41c-5.578-2.821-13.114-1.011-17.7,4.788-1.525,2.754,7.235,2.738,14.766,4.325C428.762,58.366,432.886,60.4,433.509,58.553Z" style="         fill: #fff;       "/>
          <path d="M451.259,21.224a1,1,0,0,1-1-.985,9.53,9.53,0,0,0-4.544-8.013,1,1,0,1,1,1.049-1.7,11.534,11.534,0,0,1,5.5,9.686,1,1,0,0,1-.985,1.015Z" fill="#000000"/>
        </g>
        <g>
          <path d="M479.467,49.264c4.93-5.53,15.053-21.547,10.815-35.768.081-.806.934-1.7,2.712-1l6.474,8.3,2.308,12.813-14.3,19.457Z" style="         fill: #c8ff00;       "/>
          <path d="M481.061,52.081c1.841-.964,19.99-23.2,11.933-39.584,2.887,1.091,11.4,11.185,10.952,16.958-.641,10.778-4.409,23.612-8.835,29.234C489.488,54.97,486.683,55.8,481.061,52.081Z" style="         fill: #65c400;       "/>
        </g>
        <g>
          <path d="M412.609,67.194a62.359,62.359,0,0,0,6.749,2.586c2.323.763,4.676,1.434,7.039,2.024a84.7,84.7,0,0,0,14.255,2.344,47.052,47.052,0,0,0,13.725-.846A22.129,22.129,0,0,0,465.1,67.688l7.008,8.169a29.537,29.537,0,0,1-7.95,4.3,35.67,35.67,0,0,1-8.39,1.872A54.928,54.928,0,0,1,439.7,81a90.645,90.645,0,0,1-14.827-4.439q-3.571-1.4-7.023-3.038a64.728,64.728,0,0,1-6.81-3.685Z" style="         fill: #65c400;       "/>
          <ellipse cx="478.653" cy="62.031" rx="22.292" ry="18.408" transform="translate(42.131 267.957) rotate(-32.639)" style="         fill: #c8ff00;       "/>
          <ellipse cx="480.405" cy="64.766" rx="17.677" ry="12.723" transform="translate(40.933 269.333) rotate(-32.639)" style="         fill: #65c400;       "/>
          <path d="M475.654,79.594c-4.5,0-8.426-1.7-10.556-5.024-3-4.687-1.633-11.5,3.407-16.961a.5.5,0,0,1,.734.678c-4.726,5.119-6.051,11.446-3.3,15.744,3.634,5.675,13.082,6.136,21.058,1.028a21.289,21.289,0,0,0,8.121-9.165.5.5,0,1,1,.918.4,23.465,23.465,0,0,1-20.383,13.3Z" style="         fill: #030a24;       "/>
          <circle cx="411.826" cy="68.517" r="6.486" style="         fill: #030a24;       "/>
        </g>
      </g>
    </g>
    <g>
      <g>
        <polygon points="441.302 218.641 381.991 203.064 368.192 179.539 371.743 166.018 395.321 152.309 454.631 167.885 468.43 191.411 464.88 204.931 441.302 218.641" style="         fill: #6da2ef;       "/>
        <path d="M441.521,220.249,381.01,204.357l-14.427-24.6,3.867-14.726L395.1,150.7l60.51,15.891,14.428,24.6-3.868,14.726Zm-58.55-18.478,58.113,15.261,22.5-13.084,3.234-12.316-13.17-22.454L395.54,153.917,373.036,167,369.8,179.318Z" style="         fill: #fff;       "/>
      </g>
      <rect x="386.599" y="150.578" width="61.322" height="77.799" transform="translate(61.814 -99.773) rotate(14.715)" style="         fill: #6da2ef;       "/>
      <polygon points="437.748 236.111 436.781 235.856 376.503 220.026 376.757 219.059 396.519 143.812 398.453 144.32 378.946 218.6 436.322 233.667 455.83 159.388 457.763 159.896 437.748 236.111" style="         fill: #fff;       "/>
    </g>
    <path d="M304.047,157.9a.5.5,0,0,1-.494-.423c-2.97-18.915,8.465-24.166,8.58-24.217a.5.5,0,0,1,.4.915,13.707,13.707,0,0,0-5.073,4.687c-2.156,3.185-4.413,8.973-2.922,18.461a.5.5,0,0,1-.417.571A.512.512,0,0,1,304.047,157.9Z" style="         fill: #030a24;       "/>
    <path d="M288.933,154.234a.5.5,0,0,1-.49-.408c-4.328-23.169,11.593-26.883,11.754-26.917a.5.5,0,0,1,.594.382.5.5,0,0,1-.382.594c-.62.136-15.127,3.574-10.984,25.757a.5.5,0,0,1-.4.583A.488.488,0,0,1,288.933,154.234Z" style="         fill: #030a24;       "/>
    <path d="M274.658,152.1a.5.5,0,0,1-.5-.44c-1.275-10.657,1.562-17.377,4.167-21.137a17.691,17.691,0,0,1,6.1-5.71.5.5,0,0,1,.437.9c-.121.059-12.065,6.123-9.709,25.828a.5.5,0,0,1-.437.555A.4.4,0,0,1,274.658,152.1Z" style="         fill: #030a24;       "/>
  </g>
</svg></g><!--ITEM: Illustration component 6--><g transform="translate(425.0 405.0) rotate(0.0 463.75 606.25)  scale(2.4369736859391216 2.4464109889755137)"><svg width="380.595" height="495.624" viewBox="0.0 0.0 380.595 495.624"><defs>
    
    <linearGradient id="linear-gradient-i6" x1="-58.464" y1="575.643" x2="484.203" y2="304.31" gradientUnits="userSpaceOnUse">
      <stop offset="0.44" stop-color="#c8ff00" fill="#000000"/>
      <stop offset="0.577" stop-color="#65c400" fill="#000000"/>
    </linearGradient>
  </defs>
  <g>
    <rect x="281.351" y="-18.307" width="0.999" height="123.877" transform="translate(128.03 283.804) rotate(-66.162)" style="         fill: #fff;       "/>
    <rect x="299.942" y="93.274" width="54.913" height="0.999" transform="translate(109.204 355.259) rotate(-66.14)" style="         fill: #fff;       "/>
    <path d="M363.381,69.048h-1a23.9,23.9,0,0,0-23.875-23.875v-1A24.9,24.9,0,0,1,363.381,69.048Z" style="         fill: #ff4a8b;       "/>
    <path d="M380.6,116.9h-1a17.128,17.128,0,0,0-17.108-17.109v-1A18.129,18.129,0,0,1,380.6,116.9Z" style="         fill: #ff4a8b;       "/>
    <path d="M364.22,140.473a1,1,0,0,1-.957-1.288c4.053-13.453,3.733-19.636-1.107-21.339-4.545-1.6-6.948,1.749-9.732,5.626-2.859,3.979-6.093,8.49-12.068,5.838-6.349-2.821-3.224-12.558.395-23.832,4.567-14.229,9.743-30.357-2.654-35.9-12.709-5.683-23.692,4.933-34.317,15.2-7.2,6.954-13.993,13.521-20.951,14.462-6.848.932-11.461-3.234-16.8-8.049-7.713-6.949-17.313-15.6-38.144-11.219a1,1,0,1,1-.412-1.957c21.827-4.586,31.845,4.437,39.9,11.69,5.179,4.666,9.27,8.355,15.2,7.552,6.308-.852,12.876-7.2,19.829-13.917,10.585-10.228,22.582-21.819,36.524-15.588,14.032,6.276,8.326,24.054,3.741,38.338-3.186,9.926-6.195,19.3-1.486,21.393,4.179,1.857,6.428-.717,9.63-5.177,2.84-3.957,6.057-8.445,12.021-6.346,7.573,2.665,5.609,13.015,2.357,23.8A1,1,0,0,1,364.22,140.473Z" style="         fill: #c8ff00;       "/>
    <circle cx="362.488" cy="116.902" r="5.171" style="         fill: #ff4a8b;       "/>
    <g>
      <path d="M318.172,207.583c.289.707.581,1.413.861,2.124l36.731-18.484,14.263-32.242-25.369-11.269Z" style="         fill: #6da2ef;       "/>
      <path d="M337.574,144.566,214.489,89.9l-4.882,10.214a195.884,195.884,0,0,1,31.264,15.8,193.743,193.743,0,0,1,73.08,82.056Z" style="         fill: #c8ff00;       "/>
      <path d="M324.43,138.728l-19.4-8.618-13.736,31.052a193.621,193.621,0,0,1,14.088,20.63Z" style="         fill: #65c400;       "/>
    </g>
    <path d="M157.97,129.907c21.808-10.992,30.069-29.892,58.906-16.255l8.32,4.228V0H106.006V132A152.845,152.845,0,0,1,157.97,129.907Z" style="         fill: #6da2ef;       "/>
    <g>
      <circle cx="137.898" cy="281.194" r="137.379" style="         fill: #ff4a8b;       "/>
      <path d="M137.636,419.124a136.98,136.98,0,0,1-72.646-20.9C.463,358.018-19.329,272.814,20.871,208.285a137.881,137.881,0,0,1,189.934-44.118c64.529,40.2,84.321,125.407,44.12,189.935a136.979,136.979,0,0,1-85.831,61.4A138.971,138.971,0,0,1,137.636,419.124Zm.522-274.86a137.915,137.915,0,0,0-31.23,3.6,135.981,135.981,0,0,0-85.207,60.951c-39.91,64.06-20.262,148.646,43.8,188.555a136.875,136.875,0,0,0,188.556-43.8c39.91-64.06,20.262-148.646-43.8-188.556A135.993,135.993,0,0,0,138.158,144.264Z" style="         fill: #fff;       "/>
    </g>
    <rect x="67.276" y="259.675" width="141.243" height="43.037" transform="translate(169.546 -30.39) rotate(31.923)" style="         fill: #fff;       "/>
    <g>
      <path d="M322.443,366.623l-30.907-14.307a171.1,171.1,0,0,1-9.951,18.4,168.488,168.488,0,0,1-65.74,60.777l-1.591-3.073h0l0,0-6.124-11.827-.006.013,0-.008a153.234,153.234,0,0,1-79.428,16.864l-.74,12.235.382.06q4.785.274,9.566.269a165.427,165.427,0,0,0,33.538-3.483h0l.914,4.406h0l6.93,33.343a204.659,204.659,0,0,0,25.526-7.073L209.956,488a218.172,218.172,0,0,0,84.581-53.7l-11.2-10.951a204.727,204.727,0,0,0,39.11-56.733Z" style="         fill: url(#linear-gradient-i6);       "/>
      <path d="M310.49,388.72a204.032,204.032,0,0,1-27.157,34.635l11.213,10.961a220.758,220.758,0,0,0,42.115-61.111l-14.218-6.582A205.435,205.435,0,0,1,310.49,388.72Z" style="         fill: #ff4a8b;       "/>
      <path d="M171.43,442.533l11.034,53.091a220.212,220.212,0,0,0,27.492-7.618l-17.84-51.2A165.923,165.923,0,0,1,171.43,442.533Z" style="         fill: #ff4a8b;       "/>
    </g>
    <path d="M166.639,131.385,172.8,99.3a184.66,184.66,0,0,0-44.623-3.029l.22,32.646A164.586,164.586,0,0,1,166.639,131.385Z" style="         fill: #c8ff00;       "/>
    <path d="M291.271,177.361l-13.158,8.908a169.929,169.929,0,0,1,27.576,117.7l15.746,2.138A185.87,185.87,0,0,0,291.271,177.361Z" style="         fill: #65c400;       "/>
    <g>
      <rect x="161.697" width="7.656" height="51.826" style="         fill: #030a24;       "/>
      <rect x="149.474" width="12.223" height="51.826" style="         fill: #c8ff00;       "/>
      <rect x="128.173" width="21.301" height="51.826" style="         fill: #ff4a8b;       "/>
    </g>
    <path d="M172.8,99.294c-4.369-.837-8.753-1.493-13.144-2.009-1.038,8.573-2.394,19.778-3.923,32.435,3.645.427,7.284.97,10.91,1.665,1.9.364,3.8.774,5.692,1.213l7.3-31.849C177.354,100.223,175.078,99.732,172.8,99.294Z" style="         fill: #030a24;       "/>
    <path d="M218.542,151.75a151.963,151.963,0,0,1,45.671,43.929l27.058-18.318A185.667,185.667,0,0,0,172.8,99.3l-6.157,32.09A152.138,152.138,0,0,1,218.542,151.75Z" style="         fill: #ff4a8b;       "/>
    <path d="M347.842,343.643l-47.685-14.185a168.76,168.76,0,0,1-12.548,30.687l44,23.2A218.371,218.371,0,0,0,347.842,343.643Z" style="         fill: #c8ff00;       "/>
    <path d="M332.9,339.2a202.782,202.782,0,0,1-15.081,36.879l13.788,7.271a218.371,218.371,0,0,0,16.236-39.705Z" style="         fill: #ff0068;       "/>
    <rect x="300.79" y="30.365" width="1" height="163.71" transform="translate(76.429 342.016) rotate(-66.05)" style="         fill: #fff;       "/>
    <circle cx="338.506" cy="69.048" r="7.159" style="         fill: #ff4a8b;       "/>
    <path d="M116.388,432.275a151.441,151.441,0,0,1-32.244-8.265l-4.327,11.5a163.647,163.647,0,0,0,34.839,8.93Z" style="         fill: #65c400;       "/>
  </g>
</svg></g><!--ITEM: Illustration component 7--><g transform="translate(235.0 387.5) rotate(0.0 203.75 310.0)  scale(2.4338238807396437 2.440983322572009)"><svg width="167.432" height="253.996" viewBox="0.0 0.0 167.432 253.996"><g>
    <g>
      <polygon points="111.347 9.973 5.767 172.167 167.432 173.16 167.432 9.508 111.347 9.973" style="         fill: #fff;       "/>
      <polygon points="147.432 71.167 147.432 166.687 23.153 166.687 125.213 11.341 108.553 0.275 0.598 164.291 15.295 186.687 147.432 186.687 147.432 252.996 167.432 252.996 167.432 71.167 147.432 71.167" style="         fill: #ff0068;       "/>
      <polygon points="166.932 253.996 146.432 253.996 146.432 187.687 99.556 187.687 99.556 186.687 147.432 186.687 147.432 252.996 166.932 252.996 166.932 253.996" fill="#000000"/>
      <polygon points="14.876 186.961 0 164.291 0.18 164.016 108.135 0 108.971 0.549 1.197 164.291 15.712 186.412 14.876 186.961" fill="#000000"/>
    </g>
    <g>
      <circle cx="112.258" cy="136.437" r="9.278" style="         fill: #ff0068;       "/>
      <polygon points="119.606 63.35 115.962 120.186 108.553 120.186 104.909 63.35 119.606 63.35" style="         fill: #ff0068;       "/>
    </g>
    <g>
      <path d="M112.257,146.214a9.778,9.778,0,0,1,0-19.555v1a8.778,8.778,0,0,0,0,17.555Z" fill="#000000"/>
      <rect x="106.231" y="63.292" width="1" height="56.953" transform="translate(-5.651 7.014) rotate(-3.667)" fill="#000000"/>
    </g>
  </g>
</svg></g><!--ITEM: Illustration component 8--><g transform="translate(1070.0 1007.5) rotate(0.0 362.5 565.0)  scale(2.4459776319562763 2.4434017341665406)"><svg width="296.405" height="462.47" viewBox="0.0 0.0 296.405 462.47"><g>
    <circle cx="182.447" cy="243.435" r="17.057" style="         fill: #ff0068;       "/>
    <polygon points="195.957 109.067 189.259 213.559 175.636 213.559 168.938 109.067 195.957 109.067" style="         fill: #ff0068;       "/>
    <path d="M182.447,260.992a17.557,17.557,0,0,1,0-35.114.5.5,0,0,1,0,1,16.557,16.557,0,0,0,0,33.114.5.5,0,0,1,0,1Z" fill="#000000"/>
    <path d="M189.259,214.059H175.636a.5.5,0,0,1-.5-.468l-6.7-104.492a.5.5,0,0,1,.467-.531.5.5,0,0,1,.531.466L176.1,213.059h13.155a.5.5,0,0,1,0,1Z" fill="#000000"/>
    <path d="M296.4,273.771c-6.453-.007-14.527-.013-23.788-.019V116.025H240.758V273.736c-80.1-.036-197.976-.056-197.976-.056L212.672,17.945,186.224.5.5,279.755l13.412,25.784H240.758V461.97h31.859V305.539H296.4Z" style="         fill: #ff0068;       "/>
    <path d="M240.758,462.47a.5.5,0,0,1-.5-.5V306.039H13.912a.5.5,0,0,1-.443-.269L.057,279.986a.5.5,0,0,1,.027-.508L185.808.223a.5.5,0,1,1,.832.555L1.08,279.786l13.136,25.253H240.758a.5.5,0,0,1,.5.5V461.97A.5.5,0,0,1,240.758,462.47Z" fill="#000000"/>
  </g>
</svg></g></svg>