<svg xmlns="http://www.w3.org/2000/svg" viewBox="0 0 289 361"><defs><style>.cls-1{fill:none;stroke:#2d2d2d;}</style></defs><g id="Layer_2" data-name="Layer 2"><g id="lowpoly"><polygon class="cls-1" points="0.5 45.5 0.5 189.5 9.5 225.5 18.5 243.5 36.5 279.5 54.5 306.5 81.5 333.5 108.5 351.5 126.5 360.5 144.5 360.5 144.5 216.5 144.5 18.5 144.5 0.5 126.5 0.5 108.5 0.5 54.5 9.5 18.5 27.5 0.5 45.5"/><polygon class="cls-1" points="135.5 216.5 126.5 225.5 108.5 243.5 72.5 243.5 27.5 198.5 63.5 261.5 126.5 261.5 144.5 243.5 144.5 216.5 135.5 216.5"/><polygon class="cls-1" points="117.5 126.5 126.5 117.5 126.5 108.5 108.5 90.5 90.5 81.5 54.5 81.5 27.5 108.5 54.5 99.5 81.5 99.5 90.5 99.5 99.5 117.5 108.5 126.5 117.5 126.5"/><polygon class="cls-1" points="36.5 135.5 54.5 126.5 72.5 126.5 81.5 126.5 99.5 135.5 81.5 144.5 54.5 144.5 36.5 135.5"/><polygon class="cls-1" points="144.5 9.5 126.5 9.5 108.5 9.5 63.5 18.5 27.5 36.5 9.5 54.5 9.5 189.5 18.5 225.5 45.5 279.5 63.5 306.5 81.5 324.5 108.5 342.5 126.5 351.5 126.5 297.5 144.5 297.5 144.5 9.5"/><polygon class="cls-1" points="27.5 36.5 81.5 36.5 117.5 72.5 144.5 9.5 108.5 9.5 63.5 18.5 27.5 36.5"/><polygon class="cls-1" points="144.5 90.5 117.5 72.5 144.5 63.5 144.5 90.5"/><polygon class="cls-1" points="81.5 36.5 9.5 72.5 27.5 36.5 81.5 36.5"/><polygon class="cls-1" points="117.5 72.5 90.5 81.5 81.5 36.5 117.5 72.5"/><polygon class="cls-1" points="108.5 9.5 117.5 72.5 81.5 36.5 108.5 9.5"/><polygon class="cls-1" points="63.5 18.5 81.5 36.5 27.5 36.5 63.5 18.5"/><polygon class="cls-1" points="9.5 72.5 54.5 81.5 81.5 36.5 9.5 72.5"/><polygon class="cls-1" points="144.5 90.5 108.5 90.5 117.5 72.5 144.5 90.5"/><polygon class="cls-1" points="126.5 108.5 144.5 108.5 144.5 90.5 126.5 108.5"/><polygon class="cls-1" points="27.5 108.5 9.5 108.5 9.5 72.5 27.5 108.5"/><polygon class="cls-1" points="63.5 99.5 54.5 126.5 81.5 126.5 63.5 99.5"/><polygon class="cls-1" points="90.5 99.5 81.5 126.5 99.5 117.5 90.5 99.5"/><polygon class="cls-1" points="108.5 126.5 99.5 135.5 144.5 135.5 108.5 126.5"/><polygon class="cls-1" points="54.5 126.5 27.5 108.5 36.5 135.5 54.5 126.5"/><polygon class="cls-1" points="9.5 108.5 9.5 144.5 36.5 135.5 9.5 108.5"/><polygon class="cls-1" points="54.5 144.5 9.5 162.5 36.5 135.5 54.5 144.5"/><polygon class="cls-1" points="81.5 144.5 63.5 162.5 99.5 162.5 81.5 144.5"/><polygon class="cls-1" points="99.5 135.5 99.5 162.5 81.5 144.5 99.5 135.5"/><polygon class="cls-1" points="54.5 144.5 45.5 171.5 63.5 162.5 54.5 144.5"/><polygon class="cls-1" points="9.5 162.5 9.5 180.5 45.5 171.5 9.5 162.5"/><polygon class="cls-1" points="117.5 135.5 99.5 162.5 117.5 171.5 117.5 135.5"/><polygon class="cls-1" points="144.5 135.5 117.5 171.5 144.5 162.5 144.5 135.5"/><polygon class="cls-1" points="63.5 162.5 63.5 198.5 45.5 171.5 63.5 162.5"/><polygon class="cls-1" points="27.5 198.5 63.5 198.5 45.5 171.5 27.5 198.5"/><polygon class="cls-1" points="9.5 189.5 27.5 198.5 45.5 171.5 9.5 189.5"/><polygon class="cls-1" points="63.5 162.5 108.5 189.5 99.5 162.5 63.5 162.5"/><polygon class="cls-1" points="117.5 171.5 108.5 189.5 144.5 171.5 117.5 171.5"/><polygon class="cls-1" points="63.5 198.5 108.5 189.5 90.5 216.5 63.5 198.5"/><polygon class="cls-1" points="144.5 198.5 108.5 207.5 108.5 189.5 144.5 198.5"/><polygon class="cls-1" points="90.5 216.5 108.5 207.5 108.5 189.5 90.5 216.5"/><polygon class="cls-1" points="135.5 216.5 108.5 207.5 144.5 198.5 135.5 216.5"/><polygon class="cls-1" points="126.5 225.5 90.5 216.5 108.5 207.5 126.5 225.5"/><polygon class="cls-1" points="63.5 198.5 36.5 207.5 27.5 198.5 63.5 198.5"/><polygon class="cls-1" points="54.5 225.5 63.5 198.5 36.5 207.5 54.5 225.5"/><polygon class="cls-1" points="72.5 243.5 90.5 216.5 54.5 225.5 72.5 243.5"/><polygon class="cls-1" points="90.5 243.5 90.5 216.5 108.5 243.5 90.5 243.5"/><polygon class="cls-1" points="126.5 117.5 144.5 108.5 144.5 117.5 126.5 117.5"/><polygon class="cls-1" points="144.5 135.5 126.5 117.5 144.5 117.5 144.5 135.5"/><polygon class="cls-1" points="117.5 126.5 135.5 126.5 126.5 117.5 117.5 126.5"/><polygon class="cls-1" points="27.5 198.5 18.5 225.5 9.5 189.5 27.5 198.5"/><polygon class="cls-1" points="126.5 261.5 144.5 279.5 144.5 243.5 126.5 261.5"/><polygon class="cls-1" points="144.5 297.5 108.5 279.5 144.5 279.5 144.5 297.5"/><polygon class="cls-1" points="126.5 261.5 108.5 279.5 144.5 279.5 126.5 261.5"/><polygon class="cls-1" points="81.5 261.5 63.5 279.5 90.5 288.5 81.5 261.5"/><polygon class="cls-1" points="63.5 261.5 36.5 234.5 45.5 279.5 63.5 261.5"/><polygon class="cls-1" points="63.5 279.5 63.5 261.5 45.5 279.5 63.5 288.5 63.5 279.5"/><polygon class="cls-1" points="27.5 198.5 36.5 234.5 18.5 225.5 27.5 198.5"/><polygon class="cls-1" points="63.5 288.5 90.5 288.5 63.5 306.5 63.5 288.5"/><polygon class="cls-1" points="108.5 279.5 108.5 297.5 72.5 315.5 108.5 279.5"/><polygon class="cls-1" points="126.5 288.5 108.5 297.5 126.5 297.5 126.5 288.5"/><polygon class="cls-1" points="126.5 351.5 108.5 297.5 126.5 297.5 126.5 351.5"/><polygon class="cls-1" points="72.5 315.5 108.5 324.5 126.5 351.5 108.5 297.5 72.5 315.5"/><polygon class="cls-1" points="126.5 297.5 117.5 324.5 108.5 297.5 126.5 297.5"/><polygon class="cls-1" points="108.5 324.5 108.5 297.5 117.5 324.5 108.5 324.5"/><polygon class="cls-1" points="90.5 306.5 108.5 324.5 108.5 297.5 90.5 306.5"/><polygon class="cls-1" points="144.5 279.5 126.5 288.5 144.5 288.5 144.5 279.5"/><polygon class="cls-1" points="126.5 261.5 126.5 279.5 144.5 279.5 126.5 261.5"/><polygon class="cls-1" points="99.5 261.5 108.5 279.5 126.5 261.5 99.5 261.5"/><polygon class="cls-1" points="81.5 261.5 108.5 279.5 90.5 288.5 81.5 261.5"/></g><g id="lowpoly_copy" data-name="lowpoly copy"><polygon class="cls-1" points="288.5 45.5 288.5 189.5 279.5 225.5 270.5 243.5 252.5 279.5 234.5 306.5 207.5 333.5 180.5 351.5 162.5 360.5 144.5 360.5 144.5 216.5 144.5 18.5 144.5 0.5 162.5 0.5 180.5 0.5 234.5 9.5 270.5 27.5 288.5 45.5"/><polygon class="cls-1" points="153.5 216.5 162.5 225.5 180.5 243.5 216.5 243.5 261.5 198.5 225.5 261.5 162.5 261.5 144.5 243.5 144.5 216.5 153.5 216.5"/><polygon class="cls-1" points="171.5 126.5 162.5 117.5 162.5 108.5 180.5 90.5 198.5 81.5 234.5 81.5 261.5 108.5 234.5 99.5 207.5 99.5 198.5 99.5 189.5 117.5 180.5 126.5 171.5 126.5"/><polygon class="cls-1" points="252.5 135.5 234.5 126.5 216.5 126.5 207.5 126.5 189.5 135.5 207.5 144.5 234.5 144.5 252.5 135.5"/><polygon class="cls-1" points="144.5 9.5 162.5 9.5 180.5 9.5 225.5 18.5 261.5 36.5 279.5 54.5 279.5 189.5 270.5 225.5 243.5 279.5 225.5 306.5 207.5 324.5 180.5 342.5 162.5 351.5 162.5 297.5 144.5 297.5 144.5 9.5"/><polygon class="cls-1" points="261.5 36.5 207.5 36.5 171.5 72.5 144.5 9.5 180.5 9.5 225.5 18.5 261.5 36.5"/><polygon class="cls-1" points="144.5 90.5 171.5 72.5 144.5 63.5 144.5 90.5"/><polygon class="cls-1" points="207.5 36.5 279.5 72.5 261.5 36.5 207.5 36.5"/><polygon class="cls-1" points="171.5 72.5 198.5 81.5 207.5 36.5 171.5 72.5"/><polygon class="cls-1" points="180.5 9.5 171.5 72.5 207.5 36.5 180.5 9.5"/><polygon class="cls-1" points="225.5 18.5 207.5 36.5 261.5 36.5 225.5 18.5"/><polygon class="cls-1" points="279.5 72.5 234.5 81.5 207.5 36.5 279.5 72.5"/><polygon class="cls-1" points="144.5 90.5 180.5 90.5 171.5 72.5 144.5 90.5"/><polygon class="cls-1" points="162.5 108.5 144.5 108.5 144.5 90.5 162.5 108.5"/><polygon class="cls-1" points="261.5 108.5 279.5 108.5 279.5 72.5 261.5 108.5"/><polygon class="cls-1" points="225.5 99.5 234.5 126.5 207.5 126.5 225.5 99.5"/><polygon class="cls-1" points="198.5 99.5 207.5 126.5 189.5 117.5 198.5 99.5"/><polygon class="cls-1" points="180.5 126.5 189.5 135.5 144.5 135.5 180.5 126.5"/><polygon class="cls-1" points="234.5 126.5 261.5 108.5 252.5 135.5 234.5 126.5"/><polygon class="cls-1" points="279.5 108.5 279.5 144.5 252.5 135.5 279.5 108.5"/><polygon class="cls-1" points="234.5 144.5 279.5 162.5 252.5 135.5 234.5 144.5"/><polygon class="cls-1" points="207.5 144.5 225.5 162.5 189.5 162.5 207.5 144.5"/><polygon class="cls-1" points="189.5 135.5 189.5 162.5 207.5 144.5 189.5 135.5"/><polygon class="cls-1" points="234.5 144.5 243.5 171.5 225.5 162.5 234.5 144.5"/><polygon class="cls-1" points="279.5 162.5 279.5 180.5 243.5 171.5 279.5 162.5"/><polygon class="cls-1" points="171.5 135.5 189.5 162.5 171.5 171.5 171.5 135.5"/><polygon class="cls-1" points="144.5 135.5 171.5 171.5 144.5 162.5 144.5 135.5"/><polygon class="cls-1" points="225.5 162.5 225.5 198.5 243.5 171.5 225.5 162.5"/><polygon class="cls-1" points="261.5 198.5 225.5 198.5 243.5 171.5 261.5 198.5"/><polygon class="cls-1" points="279.5 189.5 261.5 198.5 243.5 171.5 279.5 189.5"/><polygon class="cls-1" points="225.5 162.5 180.5 189.5 189.5 162.5 225.5 162.5"/><polygon class="cls-1" points="171.5 171.5 180.5 189.5 144.5 171.5 171.5 171.5"/><polygon class="cls-1" points="225.5 198.5 180.5 189.5 198.5 216.5 225.5 198.5"/><polygon class="cls-1" points="144.5 198.5 180.5 207.5 180.5 189.5 144.5 198.5"/><polygon class="cls-1" points="198.5 216.5 180.5 207.5 180.5 189.5 198.5 216.5"/><polygon class="cls-1" points="153.5 216.5 180.5 207.5 144.5 198.5 153.5 216.5"/><polygon class="cls-1" points="162.5 225.5 198.5 216.5 180.5 207.5 162.5 225.5"/><polygon class="cls-1" points="225.5 198.5 252.5 207.5 261.5 198.5 225.5 198.5"/><polygon class="cls-1" points="234.5 225.5 225.5 198.5 252.5 207.5 234.5 225.5"/><polygon class="cls-1" points="216.5 243.5 198.5 216.5 234.5 225.5 216.5 243.5"/><polygon class="cls-1" points="198.5 243.5 198.5 216.5 180.5 243.5 198.5 243.5"/><polygon class="cls-1" points="162.5 117.5 144.5 108.5 144.5 117.5 162.5 117.5"/><polygon class="cls-1" points="144.5 135.5 162.5 117.5 144.5 117.5 144.5 135.5"/><polygon class="cls-1" points="171.5 126.5 153.5 126.5 162.5 117.5 171.5 126.5"/><polygon class="cls-1" points="261.5 198.5 270.5 225.5 279.5 189.5 261.5 198.5"/><polygon class="cls-1" points="162.5 261.5 144.5 279.5 144.5 243.5 162.5 261.5"/><polygon class="cls-1" points="144.5 297.5 180.5 279.5 144.5 279.5 144.5 297.5"/><polygon class="cls-1" points="162.5 261.5 180.5 279.5 144.5 279.5 162.5 261.5"/><polygon class="cls-1" points="207.5 261.5 225.5 279.5 198.5 288.5 207.5 261.5"/><polygon class="cls-1" points="225.5 261.5 252.5 234.5 243.5 279.5 225.5 261.5"/><polygon class="cls-1" points="225.5 279.5 225.5 261.5 243.5 279.5 225.5 288.5 225.5 279.5"/><polygon class="cls-1" points="261.5 198.5 252.5 234.5 270.5 225.5 261.5 198.5"/><polygon class="cls-1" points="225.5 288.5 198.5 288.5 225.5 306.5 225.5 288.5"/><polygon class="cls-1" points="180.5 279.5 180.5 297.5 216.5 315.5 180.5 279.5"/><polygon class="cls-1" points="162.5 288.5 180.5 297.5 162.5 297.5 162.5 288.5"/><polygon class="cls-1" points="162.5 351.5 180.5 297.5 162.5 297.5 162.5 351.5"/><polygon class="cls-1" points="216.5 315.5 180.5 324.5 162.5 351.5 180.5 297.5 216.5 315.5"/><polygon class="cls-1" points="162.5 297.5 171.5 324.5 180.5 297.5 162.5 297.5"/><polygon class="cls-1" points="180.5 324.5 180.5 297.5 171.5 324.5 180.5 324.5"/><polygon class="cls-1" points="198.5 306.5 180.5 324.5 180.5 297.5 198.5 306.5"/><polygon class="cls-1" points="144.5 279.5 162.5 288.5 144.5 288.5 144.5 279.5"/><polygon class="cls-1" points="162.5 261.5 162.5 279.5 144.5 279.5 162.5 261.5"/><polygon class="cls-1" points="189.5 261.5 180.5 279.5 162.5 261.5 189.5 261.5"/><polygon class="cls-1" points="207.5 261.5 180.5 279.5 198.5 288.5 207.5 261.5"/></g></g></svg>