<svg width="771" height="983" viewBox="0 0 771 983" fill="none" xmlns="http://www.w3.org/2000/svg">
<path d="M385.506 0C172.599 0 0 58.7095 0 131.072V502.425C0 613.444 116.037 919.261 385.506 983C654.963 919.261 771 613.444 771 502.425V131.072C771 58.7095 598.414 0 385.506 0ZM385.506 43.6992C610.372 43.6992 728.17 108.627 728.17 131.072V502.425C728.17 592.797 635.391 841.533 428.336 923.954V786.405H342.677V923.954C135.621 841.533 42.8425 592.797 42.8425 502.425V131.072C42.8425 108.627 160.628 43.6992 385.506 43.6992ZM214.174 196.608C171.421 196.608 125.411 215.807 85.6723 283.98C127.501 254.283 163.06 256.5 192.753 256.5C250.316 256.5 291.055 309.075 299.834 318.112C312.388 330.912 330.047 330.912 342.677 318.112C342.677 318.112 355.23 284.575 342.677 271.698C334.81 263.76 287.787 196.608 214.174 196.608ZM556.838 196.608C483.213 196.608 445.577 263.76 437.71 271.698C425.157 284.575 437.71 318.112 437.71 318.112C450.34 330.912 470.672 330.912 483.213 318.112C492.004 309.075 520.697 240.294 578.26 240.294C607.953 240.294 643.511 254.283 685.34 283.98C645.601 215.807 599.592 196.608 556.838 196.608ZM192.753 327.667C157.613 327.667 126.754 340.647 107.094 360.441C124.222 377.686 163.199 390.382 192.753 393.203C179.405 392.571 197.122 393.62 192.753 393.203C227.894 393.203 258.765 380.235 278.425 360.441C258.765 340.647 227.894 327.667 192.753 327.667ZM578.26 327.667C543.119 327.667 512.248 340.647 492.587 360.441C512.248 380.235 543.119 393.203 578.26 393.203C613.387 393.203 644.259 380.235 663.919 360.441C644.259 340.647 613.387 327.667 578.26 327.667ZM85.6723 524.274L192.753 699.033H342.677L385.506 633.497L428.336 699.033H578.26L685.34 524.274L556.838 633.497H471.166L406.915 567.961H364.085L299.834 633.497H214.174L85.6723 524.274Z" fill="transparent"/>
</svg>